<svg xmlns="http://www.w3.org/2000/svg" width="512" height="512" viewBox="0 0 512 512">
  <rect width="512" height="512" rx="100" fill="#0f1535"/>
  <!-- plate rim -->
  <ellipse cx="256" cy="368" rx="176" ry="34" fill="#e2e8f0"/>
  <ellipse cx="256" cy="362" rx="168" ry="30" fill="#f8fafc"/>
  <!-- cloche dome -->
  <path d="M88 360 Q88 196 256 196 Q424 196 424 360 Z" fill="#f97316"/>
  <!-- dome highlight -->
  <path d="M150 310 Q162 232 256 232 Q350 232 362 310" fill="none" stroke="rgba(255,255,255,0.2)" stroke-width="20" stroke-linecap="round"/>
  <!-- knob stem -->
  <line x1="256" y1="216" x2="256" y2="196" stroke="#f97316" stroke-width="22"/>
  <!-- knob -->
  <circle cx="256" cy="184" r="32" fill="#f97316"/>
  <circle cx="256" cy="184" r="13" fill="#0f1535"/>
  <!-- leaf -->
  <path d="M274 148 Q320 118 338 148 Q304 176 274 148Z" fill="#4ade80"/>
  <!-- sparkle top-right -->
  <path d="M384 96 l8 22 l22 8 l-22 8 l-8 22 l-8-22 l-22-8 l22-8Z" fill="#f97316" opacity="0.75"/>
  <!-- sparkle top-left -->
  <path d="M128 140 l5 14 l14 5 l-14 5 l-5 14 l-5-14 l-14-5 l14-5Z" fill="#fbbf24" opacity="0.65"/>
  <!-- sparkle far right -->
  <path d="M430 200 l4 10 l10 4 l-10 4 l-4 10 l-4-10 l-10-4 l10-4Z" fill="#fb923c" opacity="0.55"/>
</svg>
