<svg xmlns="http://www.w3.org/2000/svg" width="192" height="192" viewBox="0 0 192 192">
  <rect width="192" height="192" rx="40" fill="#0f1535"/>
  <!-- plate rim -->
  <ellipse cx="96" cy="138" rx="66" ry="13" fill="#e2e8f0"/>
  <ellipse cx="96" cy="136" rx="63" ry="12" fill="#f8fafc"/>
  <!-- cloche dome -->
  <path d="M33 136 Q33 74 96 74 Q159 74 159 136 Z" fill="#f97316"/>
  <!-- dome highlight -->
  <path d="M58 118 Q62 88 96 88 Q130 88 134 118" fill="none" stroke="rgba(255,255,255,0.2)" stroke-width="8" stroke-linecap="round"/>
  <!-- knob stem -->
  <line x1="96" y1="82" x2="96" y2="74" stroke="#f97316" stroke-width="9"/>
  <!-- knob -->
  <circle cx="96" cy="70" r="12" fill="#f97316"/>
  <circle cx="96" cy="70" r="5" fill="#0f1535"/>
  <!-- leaf -->
  <path d="M104 55 Q120 44 126 56 Q114 66 104 55Z" fill="#4ade80"/>
  <!-- sparkle top-right -->
  <path d="M145 38 l3 8 l8 3 l-8 3 l-3 8 l-3-8 l-8-3 l8-3Z" fill="#f97316" opacity="0.7"/>
  <!-- sparkle left -->
  <path d="M47 58 l2 5 l5 2 l-5 2 l-2 5 l-2-5 l-5-2 l5-2Z" fill="#fbbf24" opacity="0.6"/>
</svg>
