<?xml version="1.0" encoding="UTF-8"?>
<svg version="1.1" xmlns="http://www.w3.org/2000/svg" width="500" height="500">
<path d="M0 0 C165 0 330 0 500 0 C500 165 500 330 500 500 C335 500 170 500 0 500 C0 335 0 170 0 0 Z " fill="#FEFEFE" transform="translate(0,0)"/>
<path d="M0 0 C3.15192098 2.38270217 4.62922343 3.86718109 5.65625 7.73828125 C4.32458425 12.55276511 0.8115163 14.46039618 -3.28125 16.98828125 C-5.15625 17.67578125 -5.15625 17.67578125 -9.15625 17.67578125 C-9.15625 19.32578125 -9.15625 20.97578125 -9.15625 22.67578125 C-8.02832031 22.68996094 -6.90039062 22.70414063 -5.73828125 22.71875 C24.14395241 23.47680731 50.90819133 34.54341166 73.84375 53.67578125 C74.71902344 54.40410156 75.59429687 55.13242188 76.49609375 55.8828125 C87.11323546 65.10021884 101.27219584 80.26803258 103.84375 94.67578125 C104.88273437 94.629375 105.92171875 94.58296875 106.9921875 94.53515625 C117.3544796 94.20795217 125.82461517 94.6058802 133.78125 102.05078125 C137.21081561 105.82006799 139.84375 109.43674744 139.84375 114.67578125 C140.91625 114.57265625 141.98875 114.46953125 143.09375 114.36328125 C151.83495535 114.39427843 159.98665984 118.91690341 166.16015625 124.859375 C173.86509847 133.17213169 175.34828124 140.91070354 175.15625 152.14453125 C174.11282321 163.93525396 167.63065639 174.05647016 158.70703125 181.5703125 C147.94505997 189.4839585 136.35072124 195.11658976 123.84375 199.67578125 C122.17558858 200.33869882 120.50865716 201.00473254 118.84375 201.67578125 C119.56739746 201.83135498 120.29104492 201.98692871 121.03662109 202.1472168 C135.43164636 205.25598553 149.7170763 208.50241098 163.84375 212.67578125 C162.84375 214.67578125 162.84375 214.67578125 159.44140625 215.82421875 C157.9319525 216.24135743 156.42007639 216.64980125 154.90625 217.05078125 C154.20306641 217.24671875 153.49988281 217.44265625 152.77539062 217.64453125 C137.76768844 221.7222904 122.73249479 224.47998315 107.31567383 226.43115234 C104.43862191 226.79666855 101.56410592 227.17862314 98.68945312 227.5625 C74.33224665 230.75113285 50.08837581 232.06122645 25.53125 231.98828125 C24.27803955 231.98679077 23.0248291 231.98530029 21.73364258 231.98376465 C-108.9990037 231.70596296 -108.9990037 231.70596296 -147.15625 197.67578125 C-150.68335311 193.69239991 -153.84414482 189.90510393 -154.59375 184.55078125 C-153.91965355 178.58021266 -150.76423288 174.91119515 -146.26953125 171.05859375 C-141.71133475 167.67578125 -141.71133475 167.67578125 -139.15625 167.67578125 C-139.81625 165.03578125 -140.47625 162.39578125 -141.15625 159.67578125 C-151.57310398 164.4993491 -159.42392682 168.38207185 -164.26953125 179.16796875 C-166.31328339 184.94809594 -165.6944151 189.01990929 -163.28125 194.61328125 C-153.54046293 212.2330429 -130.09197006 219.18874669 -111.90087891 224.61474609 C-69.76151206 236.65591223 -26.13807684 238.79842601 17.40625 238.92578125 C18.42997711 238.93113892 19.45370422 238.93649658 20.50845337 238.9420166 C33.38520418 238.99331066 45.97525593 238.36700419 58.76669312 236.90130615 C61.53060319 236.60120337 64.29619205 236.39845584 67.0703125 236.21875 C102.37159571 233.92275761 139.53867824 228.5780663 173.06640625 217.05859375 C174.84375 216.67578125 174.84375 216.67578125 177.84375 217.67578125 C167.38382228 223.43706335 157.01160837 228.44375071 145.84375 232.67578125 C144.2177581 233.36093203 142.59265187 234.04819142 140.96875 234.73828125 C134.40564606 237.36790553 127.57687311 239.2072778 120.77978516 241.125 C119.19666055 241.57538198 117.61895045 242.04475852 116.04296875 242.51953125 C107.31428781 245.08105803 98.33537373 246.57830835 89.39648438 248.20703125 C87.19398305 248.61146914 84.99512825 249.03027228 82.796875 249.45703125 C24.84325379 260.33811931 -35.09983073 260.27434363 -93.40625 252.17578125 C-94.14587982 252.07431793 -94.88550964 251.97285461 -95.64755249 251.86831665 C-102.94648701 250.8492465 -110.01829963 249.62071407 -117.04052734 247.33203125 C-120.09635822 246.38418064 -123.18602755 245.91643735 -126.34375 245.42578125 C-154.25285699 240.6241408 -187.43257687 229.88488633 -204.47265625 205.81640625 C-207.87388792 200.08053124 -208.09195935 194.18359761 -207.15625 187.67578125 C-203.44926321 175.08320302 -192.12734501 166.79817332 -181.15625 160.67578125 C-180.09664062 160.07894531 -179.03703125 159.48210937 -177.9453125 158.8671875 C-168.93928117 154.07564909 -157.55415236 148.67578125 -147.15625 148.67578125 C-147.32125 147.87140625 -147.48625 147.06703125 -147.65625 146.23828125 C-149.15367467 135.56913045 -149.15367467 135.56913045 -147.17260742 131.80859375 C-146.08631743 129.52902868 -145.82881639 127.9080452 -145.6640625 125.40234375 C-145.60114014 124.58443359 -145.53821777 123.76652344 -145.47338867 122.92382812 C-145.40998291 122.05822266 -145.34657715 121.19261719 -145.28125 120.30078125 C-143.17352788 96.21500926 -133.00863041 77.4712038 -117.15625 59.67578125 C-116.57230469 59.00675781 -115.98835938 58.33773437 -115.38671875 57.6484375 C-95.71693709 36.48474837 -63.64546861 23.89509587 -35.18359375 22.77587891 C-33.50815581 22.72829972 -31.83219326 22.69966127 -30.15625 22.67578125 C-30.15625 21.02578125 -30.15625 19.37578125 -30.15625 17.67578125 C-31.043125 17.57265625 -31.93 17.46953125 -32.84375 17.36328125 C-37.92874984 16.30790392 -42.03453519 13.87808965 -45.15625 9.67578125 C-45.28125 6.73828125 -45.28125 6.73828125 -44.15625 3.67578125 C-33.87320261 -7.37849469 -12.43860241 -7.63892431 0 0 Z " fill="#11182A" transform="translate(271.15625,91.32421875)"/>
<path d="M0 0 C39.93 0 79.86 0 121 0 C121 37.29 121 74.58 121 113 C123.97 112.01 126.94 111.02 130 110 C131.45019531 109.52820313 132.90039062 109.05640625 134.39453125 108.5703125 C154.50315159 102.01940279 174.61482929 94.60666744 188.5625 77.9375 C190.47841094 74.02237765 190.93040784 71.38430581 191 67 C189.69352574 63.90571886 188.61028426 62.43078889 185.875 60.5 C184 59 184 59 183.25 56.3125 C183.1675 55.549375 183.085 54.78625 183 54 C189.97471047 53.09025516 194.50519747 55.83350625 200 60 C203.17064073 63.47260651 204.201422 65.77628253 204.25 70.375 C204.1675 71.57125 204.085 72.7675 204 74 C204.53109375 73.83886719 205.0621875 73.67773438 205.609375 73.51171875 C215.54373404 71.38524647 226.13059043 72.91342637 235.046875 77.6875 C241.33453689 81.91280879 244.78028995 87.34022047 246.56640625 94.62890625 C248.14288482 103.24982962 245.99174625 111.1699133 241.4375 118.5625 C235.59365803 126.73519978 227.96507052 132.63427348 219 137 C218.43611572 137.29688721 217.87223145 137.59377441 217.29125977 137.8996582 C212.07076654 140.61342642 206.76185684 142.69149679 201.1875 144.5625 C199.83011719 145.02245361 199.83011719 145.02245361 198.4453125 145.49169922 C191.42019067 147.76948994 184.48053848 149.15254393 177.12963867 149.84985352 C171.77078239 150.45652759 169.63312389 151.79516625 166 156 C164.21895308 157.41550454 162.40578836 158.79155736 160.5625 160.125 C159.65628906 160.78757812 158.75007812 161.45015625 157.81640625 162.1328125 C154.95066182 164.03270964 152.15915936 165.64036179 149 167 C148.34 166.67 147.68 166.34 147 166 C147.60585938 165.44054687 148.21171875 164.88109375 148.8359375 164.3046875 C162.38379152 151.34043335 173.0250673 135.54968592 177 117 C176.484375 118.134375 175.96875 119.26875 175.4375 120.4375 C172.90047623 125.48493539 169.6147313 129.68100694 166 134 C165.34128906 134.80566406 164.68257812 135.61132812 164.00390625 136.44140625 C147.69170898 155.56708342 122.95527999 168.35491127 99 175 C98.00081543 175.29414795 98.00081543 175.29414795 96.98144531 175.59423828 C71.72764287 182.78023186 41.02660625 180.95411918 16 174 C15.33274902 173.81953125 14.66549805 173.6390625 13.97802734 173.453125 C-12.48844014 166.20735536 -38.85429974 150.29091282 -53.28515625 126.33203125 C-58.18630005 117.71949378 -64 107.02927127 -64 97 C-60.94705491 98.4876938 -58.01245488 100.13124752 -55.0625 101.8125 C-40.08767441 109.95185111 -23.46629327 114.12786525 -6.8125 117.25 C-5.95922119 117.41314697 -5.10594238 117.57629395 -4.22680664 117.74438477 C11.31587998 120.50553709 27.14683652 120.20222424 42.875 120.1875 C44.50607697 120.18709213 44.50607697 120.18709213 46.17010498 120.18667603 C65.97467241 120.16386433 85.54082933 119.9798524 104.94140625 115.59765625 C109.05706842 114.7934464 112.82296597 114.7801561 117 115 C117 113.68 117 112.36 117 111 C115.35 111 113.7 111 112 111 C112 109.68 112 108.36 112 107 C110.68 107 109.36 107 108 107 C108 108.32 108 109.64 108 111 C106.35 110.67 104.7 110.34 103 110 C103.33 108.68 103.66 107.36 104 106 C105.32 106 106.64 106 108 106 C108 104.68 108 103.36 108 102 C109.65 102 111.3 102 113 102 C113 103.32 113 104.64 113 106 C114.32 106 115.64 106 117 106 C117 103.36 117 100.72 117 98 C114.03 98 111.06 98 108 98 C107.67 99.32 107.34 100.64 107 102 C105.68 102 104.36 102 103 102 C103 103.32 103 104.64 103 106 C101.68 106 100.36 106 99 106 C99 103.36 99 100.72 99 98 C99.99 97.67 100.98 97.34 102 97 C102.33 94.36 102.66 91.72 103 89 C107.29 88.67 111.58 88.34 116 88 C116 82.39 116 76.78 116 71 C113.36 70.67 110.72 70.34 108 70 C108 68.68 108 67.36 108 66 C106.35 66 104.7 66 103 66 C103.33 67.32 103.66 68.64 104 70 C105.32 70.33 106.64 70.66 108 71 C108 72.32 108 73.64 108 75 C109.32 75 110.64 75 112 75 C112 77.97 112 80.94 112 84 C109.03 84 106.06 84 103 84 C103 85.32 103 86.64 103 88 C101.68 88 100.36 88 99 88 C99 85.36 99 82.72 99 80 C100.32 80 101.64 80 103 80 C103 78.35 103 76.7 103 75 C92.77 75 82.54 75 72 75 C72 70.71 72 66.42 72 62 C73.32 62 74.64 62 76 62 C76 63.32 76 64.64 76 66 C77.65 66 79.3 66 81 66 C81 67.32 81 68.64 81 70 C83.97 70 86.94 70 90 70 C90 68.68 90 67.36 90 66 C91.32 66 92.64 66 94 66 C94 67.32 94 68.64 94 70 C95.65 70 97.3 70 99 70 C99 67.36 99 64.72 99 62 C100.32 62 101.64 62 103 62 C103 60.35 103 58.7 103 57 C97.06 57 91.12 57 85 57 C85 55.68 85 54.36 85 53 C86.32 52.67 87.64 52.34 89 52 C89.33 50.68 89.66 49.36 90 48 C91.32 48 92.64 48 94 48 C94.33 49.32 94.66 50.64 95 52 C95.99 52 96.98 52 98 52 C98.33 49.36 98.66 46.72 99 44 C101.64 43.67 104.28 43.34 107 43 C107 42.01 107 41.02 107 40 C100.07 40 93.14 40 86 40 C85.67 41.32 85.34 42.64 85 44 C83.68 44 82.36 44 81 44 C81 45.32 81 46.64 81 48 C79.35 48 77.7 48 76 48 C76 45.36 76 42.72 76 40 C78.475 39.505 78.475 39.505 81 39 C80.67 36.36 80.34 33.72 80 31 C78.68 30.67 77.36 30.34 76 30 C76 32.97 76 35.94 76 39 C73.03 39 70.06 39 67 39 C67 37.68 67 36.36 67 35 C65.68 35 64.36 35 63 35 C63 36.32 63 37.64 63 39 C60.03 39 57.06 39 54 39 C54 40.65 54 42.3 54 44 C58.29 44 62.58 44 67 44 C67 46.64 67 49.28 67 52 C62.71 52 58.42 52 54 52 C54 50.68 54 49.36 54 48 C51.03 48 48.06 48 45 48 C45 46.68 45 45.36 45 44 C46.32 44 47.64 44 49 44 C49 41.03 49 38.06 49 35 C47.68 35 46.36 35 45 35 C45 33.35 45 31.7 45 30 C46.32 30 47.64 30 49 30 C49 28.68 49 27.36 49 26 C50.65 26 52.3 26 54 26 C54 24.35 54 22.7 54 21 C52.35 21 50.7 21 49 21 C49 19.68 49 18.36 49 17 C47.68 17 46.36 17 45 17 C45 15.35 45 13.7 45 12 C43.68 12.33 42.36 12.66 41 13 C40.67 21.58 40.34 30.16 40 39 C41.65 39 43.3 39 45 39 C44.67 40.65 44.34 42.3 44 44 C42.68 44 41.36 44 40 44 C40 45.32 40 46.64 40 48 C37.36 48 34.72 48 32 48 C32 46.68 32 45.36 32 44 C33.32 44 34.64 44 36 44 C36 42.35 36 40.7 36 39 C28.74 39 21.48 39 14 39 C13.67 40.65 13.34 42.3 13 44 C11.02 43.505 11.02 43.505 9 43 C9 41.68 9 40.36 9 39 C7.68 39 6.36 39 5 39 C5 40.65 5 42.3 5 44 C6.32 44 7.64 44 9 44 C9 45.32 9 46.64 9 48 C10.65 48 12.3 48 14 48 C14 50.97 14 53.94 14 57 C15.32 57 16.64 57 18 57 C18.33 55.35 18.66 53.7 19 52 C19.99 52 20.98 52 22 52 C22 50.68 22 49.36 22 48 C20.68 48 19.36 48 18 48 C18 46.68 18 45.36 18 44 C21.3 44 24.6 44 28 44 C28 46.64 28 49.28 28 52 C29.14339844 51.98839844 30.28679687 51.97679687 31.46484375 51.96484375 C32.95572754 51.95546712 34.44661309 51.94636679 35.9375 51.9375 C36.69224609 51.92912109 37.44699219 51.92074219 38.22460938 51.91210938 C40.14994313 51.90347559 42.07535581 51.94775667 44 52 C45 53 45 53 45.09765625 55.94140625 C45.08605469 57.13636719 45.07445312 58.33132812 45.0625 59.5625 C45.05347656 60.76003906 45.04445313 61.95757812 45.03515625 63.19140625 C45.02355469 64.11824219 45.01195312 65.04507813 45 66 C46.32 66 47.64 66 49 66 C49 68.97 49 71.94 49 75 C47.68 75 46.36 75 45 75 C45 76.32 45 77.64 45 79 C43.68 79.33 42.36 79.66 41 80 C40.505 81.98 40.505 81.98 40 84 C41.65 84 43.3 84 45 84 C45 82.68 45 81.36 45 80 C46.32 80 47.64 80 49 80 C49 82.64 49 85.28 49 88 C46.36 88.33 43.72 88.66 41 89 C40.67 94.61 40.34 100.22 40 106 C41.65 106 43.3 106 45 106 C45 104.68 45 103.36 45 102 C46.32 102 47.64 102 49 102 C49.33 100.35 49.66 98.7 50 97 C51.32 97 52.64 97 54 97 C54 95.68 54 94.36 54 93 C56.97 93 59.94 93 63 93 C63.33 94.32 63.66 95.64 64 97 C64.99 97.33 65.98 97.66 67 98 C67 99.32 67 100.64 67 102 C64.03 102 61.06 102 58 102 C58 103.32 58 104.64 58 106 C60.97 106 63.94 106 67 106 C67 107.65 67 109.3 67 111 C64.03 111 61.06 111 58 111 C58 112.32 58 113.64 58 115 C53.71 115 49.42 115 45 115 C45 113.68 45 112.36 45 111 C43.35 111 41.7 111 40 111 C40 112.32 40 113.64 40 115 C38.68 115 37.36 115 36 115 C35.98541748 114.39526855 35.97083496 113.79053711 35.95581055 113.16748047 C35.88090812 110.40270735 35.78438927 107.63908643 35.6875 104.875 C35.66494141 103.92367187 35.64238281 102.97234375 35.61914062 101.9921875 C35.41608486 96.67581849 35.11702971 92.51606863 32 88 C23.72584334 83.79034135 14.10569419 84.2848599 5 84 C5.0811599 87.56341281 5.19397861 91.12514956 5.3125 94.6875 C5.33505859 95.69490234 5.35761719 96.70230469 5.38085938 97.74023438 C5.61842811 104.28417313 6.23799726 108.23799726 11 113 C12.98 113.99 12.98 113.99 15 115 C10.05 115 5.1 115 0 115 C0 77.05 0 39.1 0 0 Z " fill="#F4F4F4" transform="translate(194,135)"/>
<path d="M0 0 C3.15192098 2.38270217 4.62922343 3.86718109 5.65625 7.73828125 C4.32458425 12.55276511 0.8115163 14.46039618 -3.28125 16.98828125 C-5.15625 17.67578125 -5.15625 17.67578125 -9.15625 17.67578125 C-9.15625 19.32578125 -9.15625 20.97578125 -9.15625 22.67578125 C-8.02832031 22.68996094 -6.90039062 22.70414063 -5.73828125 22.71875 C24.14395241 23.47680731 50.90819133 34.54341166 73.84375 53.67578125 C74.71902344 54.40410156 75.59429687 55.13242188 76.49609375 55.8828125 C87.71830672 65.62551913 102.15101767 81.30206155 103.84375 96.67578125 C105.82375 96.67578125 107.80375 96.67578125 109.84375 96.67578125 C108.52375 97.00578125 107.20375 97.33578125 105.84375 97.67578125 C107.38068861 101.15411599 108.65899698 103.50422488 111.46875 106.11328125 C114.53802431 109.42486669 114.91996145 111.17930543 114.84375 115.67578125 C111.83392339 126.57804208 101.33408886 133.48938297 92.125 138.84375 C91.0421875 139.44832031 89.959375 140.05289063 88.84375 140.67578125 C87.9671875 141.18753906 87.090625 141.69929687 86.1875 142.2265625 C73.18818497 149.31883585 58.21047343 153.48317604 43.84375 156.67578125 C43.84375 119.38578125 43.84375 82.09578125 43.84375 43.67578125 C3.91375 43.67578125 -36.01625 43.67578125 -77.15625 43.67578125 C-77.15625 80.96578125 -77.15625 118.25578125 -77.15625 156.67578125 C-96.87963315 154.48429423 -127.85391983 148.45811912 -141.328125 132.02734375 C-141.93140625 131.25132812 -142.5346875 130.4753125 -143.15625 129.67578125 C-143.81625 129.34578125 -144.47625 129.01578125 -145.15625 128.67578125 C-146.76408636 103.39702066 -136.15991452 81.2860066 -119.76953125 62.609375 C-118.90714844 61.64128906 -118.04476562 60.67320312 -117.15625 59.67578125 C-116.57230469 59.00675781 -115.98835938 58.33773437 -115.38671875 57.6484375 C-95.71693709 36.48474837 -63.64546861 23.89509587 -35.18359375 22.77587891 C-33.50815581 22.72829972 -31.83219326 22.69966127 -30.15625 22.67578125 C-30.15625 21.02578125 -30.15625 19.37578125 -30.15625 17.67578125 C-31.043125 17.57265625 -31.93 17.46953125 -32.84375 17.36328125 C-37.92874984 16.30790392 -42.03453519 13.87808965 -45.15625 9.67578125 C-45.28125 6.73828125 -45.28125 6.73828125 -44.15625 3.67578125 C-33.87320261 -7.37849469 -12.43860241 -7.63892431 0 0 Z " fill="#F27102" transform="translate(271.15625,91.32421875)"/>
<path d="M0 0 C0.33 0 0.66 0 1 0 C1.50512244 1.60256108 2.00391627 3.20711792 2.5 4.8125 C2.7784375 5.70582031 3.056875 6.59914062 3.34375 7.51953125 C4 10 4 10 4 13 C2.54980469 13.54527344 2.54980469 13.54527344 1.0703125 14.1015625 C-6.73923012 17.09409801 -14.06528974 20.24216307 -21 25 C-21.58265625 25.39832031 -22.1653125 25.79664063 -22.765625 26.20703125 C-27.9461266 30.1185716 -31.42579007 34.62381829 -32.51953125 41.0546875 C-32.92812098 49.13146123 -31.39108364 54.90891132 -26 61 C-16.20125193 69.95016368 -4.04601934 74.43789331 8.3125 78.625 C9.12895996 78.902229 9.94541992 79.17945801 10.78662109 79.46508789 C23.7135146 83.70166447 36.88221852 86.52556342 50.28173828 88.75537109 C52.50035159 89.12505859 54.71699562 89.50515315 56.93359375 89.88671875 C84.77978625 94.62956454 112.4032418 96.18899231 140.625 96.1875 C141.75394684 96.18840637 142.88289368 96.18931274 144.04605103 96.19024658 C147.31461873 96.18994966 150.58302258 96.18095712 153.8515625 96.16796875 C154.82672318 96.16676529 155.80188385 96.16556183 156.80659485 96.1643219 C162.1960434 96.12790966 167.47613436 95.83888325 172.83135986 95.22238159 C175.93396432 94.90422732 179.0086188 94.90434701 182.125 94.9375 C183.79949219 94.95103516 183.79949219 94.95103516 185.5078125 94.96484375 C186.74144531 94.98224609 186.74144531 94.98224609 188 95 C188 94.34 188 93.68 188 93 C190.81215442 92.70464523 193.62459243 92.41304976 196.4375 92.125 C197.33710449 92.03259033 198.23670898 91.94018066 199.16357422 91.8449707 C204.00564137 91.35943944 208.84374551 90.9250196 213.69921875 90.59765625 C249.20580143 88.1799217 286.47846756 82.97665672 320.22265625 71.3828125 C322 71 322 71 325 72 C314.54007228 77.7612821 304.16785837 82.76796946 293 87 C291.3740081 87.68515078 289.74890187 88.37241017 288.125 89.0625 C281.56189606 91.69212428 274.73312311 93.53149655 267.93603516 95.44921875 C266.35291055 95.89960073 264.77520045 96.36897727 263.19921875 96.84375 C254.47053781 99.40527678 245.49162373 100.9025271 236.55273438 102.53125 C234.35023305 102.93568789 232.15137825 103.35449103 229.953125 103.78125 C171.99950379 114.66233806 112.05641927 114.59856238 53.75 106.5 C53.01037018 106.39853668 52.27074036 106.29707336 51.50869751 106.1925354 C44.20976299 105.17346525 37.13795037 103.94493282 30.11572266 101.65625 C27.05989178 100.70839939 23.97022245 100.2406561 20.8125 99.75 C-7.09660699 94.94835955 -40.27632687 84.20910508 -57.31640625 60.140625 C-60.71763792 54.40474999 -60.93570935 48.50781636 -60 42 C-56.29301321 29.40742177 -44.97109501 21.12239207 -34 15 C-32.94039062 14.40316406 -31.88078125 13.80632812 -30.7890625 13.19140625 C-21.78303117 8.39986784 -10.39790236 3 0 3 C0 2.01 0 1.02 0 0 Z " fill="#F78009" transform="translate(124,237)"/>
<path d="M0 0 C0.495 1.485 0.495 1.485 1 3 C0.01 3 -0.98 3 -2 3 C-2 3.66 -2 4.32 -2 5 C-4.0829243 5.64715133 -6.16635539 6.29267166 -8.25 6.9375 C-9.41015625 7.29714844 -10.5703125 7.65679687 -11.765625 8.02734375 C-14.17089058 8.75066637 -16.55654044 9.42542411 -19 10 C-19 10.99 -19 11.98 -19 13 C-19.99 13.66 -20.98 14.32 -22 15 C16.28 15.33 54.56 15.66 94 16 C94 16.33 94 16.66 94 17 C54.07 17 14.14 17 -27 17 C-27 54.29 -27 91.58 -27 130 C-46.72338315 127.80851298 -77.69766983 121.78233787 -91.171875 105.3515625 C-91.77515625 104.57554687 -92.3784375 103.79953125 -93 103 C-93.66 102.67 -94.32 102.34 -95 102 C-96.60783636 76.72123941 -86.00366452 54.61022535 -69.61328125 35.93359375 C-68.75089844 34.96550781 -67.88851562 33.99742187 -67 33 C-66.41605469 32.33097656 -65.83210938 31.66195312 -65.23046875 30.97265625 C-54.16936958 19.07147359 -17.55565632 -7.71324031 0 0 Z " fill="#FB8205" transform="translate(221,118)"/>
<path d="M0 0 C1.32 0 2.64 0 4 0 C4 1.65 4 3.3 4 5 C5.32 5 6.64 5 8 5 C8 6.32 8 7.64 8 9 C9.65 9 11.3 9 13 9 C13 10.65 13 12.3 13 14 C11.35 14 9.7 14 8 14 C8 15.32 8 16.64 8 18 C6.68 18 5.36 18 4 18 C4 19.65 4 21.3 4 23 C5.32 23 6.64 23 8 23 C8 25.97 8 28.94 8 32 C6.68 32 5.36 32 4 32 C4 33.32 4 34.64 4 36 C6.97 36 9.94 36 13 36 C13 37.32 13 38.64 13 40 C17.29 40 21.58 40 26 40 C26 37.36 26 34.72 26 32 C21.71 32 17.42 32 13 32 C13 30.35 13 28.7 13 27 C15.97 27 18.94 27 22 27 C22 25.68 22 24.36 22 23 C23.32 23 24.64 23 26 23 C26 24.32 26 25.64 26 27 C28.97 27 31.94 27 35 27 C35 24.03 35 21.06 35 18 C36.65 18.33 38.3 18.66 40 19 C40 21.64 40 24.28 40 27 C38.68 27.33 37.36 27.66 36 28 C35.67 30.64 35.34 33.28 35 36 C36.65 36 38.3 36 40 36 C40 34.68 40 33.36 40 32 C41.32 32 42.64 32 44 32 C44.33 30.35 44.66 28.7 45 27 C51.93 27 58.86 27 66 27 C66.495 28.98 66.495 28.98 67 31 C66 32 66 32 64.15234375 32.09765625 C62.1015625 32.06510417 60.05078125 32.03255208 58 32 C58 34.64 58 37.28 58 40 C56.68 40.33 55.36 40.66 54 41 C53.67 39.35 53.34 37.7 53 36 C51.68 36 50.36 36 49 36 C48.67 37.65 48.34 39.3 48 41 C46.68 41 45.36 41 44 41 C44 42.32 44 43.64 44 45 C49.94 45 55.88 45 62 45 C62 46.65 62 48.3 62 50 C60.68 50 59.36 50 58 50 C58 52.64 58 55.28 58 58 C56.35 58 54.7 58 53 58 C53 56.68 53 55.36 53 54 C51.68 54 50.36 54 49 54 C49 55.32 49 56.64 49 58 C46.03 58 43.06 58 40 58 C40 56.68 40 55.36 40 54 C38.35 54 36.7 54 35 54 C35 52.68 35 51.36 35 50 C33.68 50 32.36 50 31 50 C31 54.29 31 58.58 31 63 C41.23 63 51.46 63 62 63 C62 64.65 62 66.3 62 68 C60.68 68 59.36 68 58 68 C58 70.64 58 73.28 58 76 C59.32 76 60.64 76 62 76 C62 74.68 62 73.36 62 72 C64.97 72 67.94 72 71 72 C71 69.03 71 66.06 71 63 C69.68 63 68.36 63 67 63 C67 61.68 67 60.36 67 59 C65.35 58.67 63.7 58.34 62 58 C62 56.68 62 55.36 62 54 C63.65 54 65.3 54 67 54 C67 55.32 67 56.64 67 58 C68.299375 57.979375 69.59875 57.95875 70.9375 57.9375 C72.29165633 57.91600546 73.64756083 57.92851801 75 58 C76.8855253 59.8855253 76.13246689 62.57768831 76.13671875 65.08203125 C76.13285156 65.87996094 76.12898438 66.67789063 76.125 67.5 C76.12886719 68.29792969 76.13273437 69.09585938 76.13671875 69.91796875 C76.12660767 75.87339233 76.12660767 75.87339233 75 77 C72.81360547 77.07258946 70.62499611 77.08373783 68.4375 77.0625 C66.64119141 77.04896484 66.64119141 77.04896484 64.80859375 77.03515625 C63.41833984 77.01775391 63.41833984 77.01775391 62 77 C62 79.64 62 82.28 62 85 C60.68 85.33 59.36 85.66 58 86 C58 88.64 58 91.28 58 94 C59.32 94 60.64 94 62 94 C62 92.68 62 91.36 62 90 C62.639375 89.896875 63.27875 89.79375 63.9375 89.6875 C64.618125 89.460625 65.29875 89.23375 66 89 C66.495 87.515 66.495 87.515 67 86 C69.97 86 72.94 86 76 86 C76 88.64 76 91.28 76 94 C74.68 94 73.36 94 72 94 C72 92.68 72 91.36 72 90 C70.35 90 68.7 90 67 90 C67 91.32 67 92.64 67 94 C65.68 94.33 64.36 94.66 63 95 C63 95.99 63 96.98 63 98 C64.98 98.495 64.98 98.495 67 99 C67 97.68 67 96.36 67 95 C68.32 95 69.64 95 71 95 C71 96.32 71 97.64 71 99 C72.65 99 74.3 99 76 99 C76 100.32 76 101.64 76 103 C68.575 103.99 68.575 103.99 61 105 C61 104.67 61 104.34 61 104 C46.81 103.34 32.62 102.68 18 102 C18 102.66 18 103.32 18 104 C12.6106091 104.04976354 7.22135456 104.08589047 1.83178711 104.10986328 C0.00168525 104.11986648 -1.82840084 104.13347335 -3.65844727 104.15087891 C-6.30228588 104.17537891 -8.94591157 104.18654013 -11.58984375 104.1953125 C-12.39646957 104.20563507 -13.2030954 104.21595764 -14.03416443 104.22659302 C-20.86564092 104.22791584 -27.56075459 103.98188689 -33 99.5625 C-35.82589345 95.94182401 -36.12340781 93.3495507 -36.09765625 88.89453125 C-36.09443359 87.91162109 -36.09121094 86.92871094 -36.08789062 85.91601562 C-36.07951172 84.89185547 -36.07113281 83.86769531 -36.0625 82.8125 C-36.05798828 81.77673828 -36.05347656 80.74097656 -36.04882812 79.67382812 C-36.0370401 77.11582734 -36.02058515 74.55794267 -36 72 C-13.70276906 71.35056609 -13.70276906 71.35056609 -9 75 C-4.57185344 80.88333254 -4.49412057 85.73843064 -4.75 92.9375 C-4.76804688 93.90751953 -4.78609375 94.87753906 -4.8046875 95.87695312 C-4.85149333 98.25234894 -4.91703615 100.62563844 -5 103 C-3.68 103 -2.36 103 -1 103 C-1 101.68 -1 100.36 -1 99 C0.65 99 2.3 99 4 99 C4 100.32 4 101.64 4 103 C8.29 103 12.58 103 17 103 C17 101.68 17 100.36 17 99 C19.97 99 22.94 99 26 99 C26 97.35 26 95.7 26 94 C23.03 94 20.06 94 17 94 C17 92.68 17 91.36 17 90 C19.97 90 22.94 90 26 90 C26 88.68 26 87.36 26 86 C24.68 85.67 23.36 85.34 22 85 C22 83.68 22 82.36 22 81 C19.03 81 16.06 81 13 81 C13 82.32 13 83.64 13 85 C11.02 85.495 11.02 85.495 9 86 C8.505 87.98 8.505 87.98 8 90 C6.68 90 5.36 90 4 90 C4 91.32 4 92.64 4 94 C2.35 94 0.7 94 -1 94 C-1.02684312 91.18743719 -1.04676188 88.37512759 -1.0625 85.5625 C-1.07087891 84.76005859 -1.07925781 83.95761719 -1.08789062 83.13085938 C-1.0965143 81.08704779 -1.0522815 79.04316098 -1 77 C0 76 0 76 1.84765625 75.90234375 C3.8984375 75.93489583 5.94921875 75.96744792 8 76 C8 73.36 8 70.72 8 68 C6.68 68 5.36 68 4 68 C4 69.32 4 70.64 4 72 C2.35 72 0.7 72 -1 72 C-0.67 70.35 -0.34 68.7 0 67 C1.32 67 2.64 67 4 67 C4 65.68 4 64.36 4 63 C5.32 63 6.64 63 8 63 C8 60.03 8 57.06 8 54 C6.68 54 5.36 54 4 54 C3.67 49.71 3.34 45.42 3 41 C-2.28 40.67 -7.56 40.34 -13 40 C-13 37.36 -13 34.72 -13 32 C-16.3 32 -19.6 32 -23 32 C-23 33.32 -23 34.64 -23 36 C-21.68 36 -20.36 36 -19 36 C-19 37.32 -19 38.64 -19 40 C-20.485 40.495 -20.485 40.495 -22 41 C-22.73323796 43.01508358 -22.73323796 43.01508358 -23 45 C-24.32 45 -25.64 45 -27 45 C-27 42.03 -27 39.06 -27 36 C-28.65 36 -30.3 36 -32 36 C-32 34.68 -32 33.36 -32 32 C-33.32 32 -34.64 32 -36 32 C-36 30.35 -36 28.7 -36 27 C-34.68 27 -33.36 27 -32 27 C-31.67 28.32 -31.34 29.64 -31 31 C-30.01 31 -29.02 31 -28 31 C-27.67 29.68 -27.34 28.36 -27 27 C-19.74 27 -12.48 27 -5 27 C-5 28.65 -5 30.3 -5 32 C-6.32 32 -7.64 32 -9 32 C-9 33.32 -9 34.64 -9 36 C-6.36 36 -3.72 36 -1 36 C-1 34.68 -1 33.36 -1 32 C0.32 31.67 1.64 31.34 3 31 C3.33 29.68 3.66 28.36 4 27 C2.35 27 0.7 27 -1 27 C-1.02886537 22.68751391 -1.04675255 18.37505238 -1.0625 14.0625 C-1.07087891 12.83080078 -1.07925781 11.59910156 -1.08789062 10.33007812 C-1.09111328 9.16025391 -1.09433594 7.99042969 -1.09765625 6.78515625 C-1.10289307 5.70113525 -1.10812988 4.61711426 -1.11352539 3.50024414 C-1 1 -1 1 0 0 Z " fill="#121212" transform="translate(235,147)"/>
<path d="M0 0 C0 4.01094227 -1.76100999 5.74328725 -4 9 C-6.39420499 16.18261496 -5.5978986 22.55637262 -2.3125 29.3125 C5.85035176 43.99429588 20.75143103 52.71445497 36 59 C36.61681641 59.25692627 37.23363281 59.51385254 37.86914062 59.77856445 C58.29010514 68.146765 80.00433849 72.88062091 101.8449707 75.67285156 C104.03168637 76.00481021 106.14919052 76.47876169 108.3046875 76.97265625 C116.73177279 78.6935388 125.37212483 79.05588116 133.9375 79.625 C134.91074219 79.69003723 135.88398438 79.75507446 136.88671875 79.82208252 C197.41242597 83.75052782 257.82662215 80.67863258 317 67 C317.70527832 66.83822266 318.41055664 66.67644531 319.13720703 66.50976562 C323.78272963 65.43010016 328.39354849 64.23343218 333 63 C333.92925293 62.75523926 334.85850586 62.51047852 335.81591797 62.25830078 C347.49589863 59.16692163 359.00232684 55.96730084 370.16748047 51.30932617 C374.72470557 49.4137394 379.1840375 48.10063803 384 47 C382.26586104 50.46827792 378.21139703 51.4837184 374.8125 53.0625 C373.97041992 53.45663086 373.12833984 53.85076172 372.26074219 54.25683594 C357.53857141 61.06455774 342.52739768 67.27755545 327 72 C326.14664062 72.26039063 325.29328125 72.52078125 324.4140625 72.7890625 C314.40586014 75.66207958 304.16641753 77.77111306 294 80 C293.17854492 80.18208008 292.35708984 80.36416016 291.51074219 80.55175781 C255.35179501 88.48908768 218.0893498 91.29314837 181.125 91.25 C180.30157104 91.24931519 179.47814209 91.24863037 178.62976074 91.2479248 C169.47026184 91.22259306 160.32900277 90.98027521 151.1796875 90.546875 C150.34986359 90.5086261 149.52003967 90.4703772 148.66506958 90.43096924 C144.36826972 90.20794373 140.24274946 89.75115272 136 89 C134.51226719 88.89775794 133.02204513 88.8255622 131.53125 88.7890625 C122.56383722 88.4977797 114.19871963 87.87468808 105.4453125 85.7421875 C101.70389926 84.93621413 97.98951215 84.54610399 94.1875 84.1875 C71.35077756 81.81098268 47.76830203 74.72316723 27 65 C26.32195312 64.68579102 25.64390625 64.37158203 24.9453125 64.04785156 C9.80953321 56.94375282 -4.00766917 48.55132437 -10.1484375 32.11328125 C-12.43492555 23.75396484 -11.7664969 16.81597157 -7.51171875 9.26953125 C-5.26270365 5.89310289 -2.77025265 2.96352609 0 0 Z " fill="#1A2135" transform="translate(63,275)"/>
<path d="M0 0 C1.32 0 2.64 0 4 0 C4 1.65 4 3.3 4 5 C5.32 5 6.64 5 8 5 C8 6.32 8 7.64 8 9 C9.65 9 11.3 9 13 9 C13 10.65 13 12.3 13 14 C11.35 14 9.7 14 8 14 C8 15.32 8 16.64 8 18 C6.68 18 5.36 18 4 18 C4 19.65 4 21.3 4 23 C5.32 23 6.64 23 8 23 C8 25.97 8 28.94 8 32 C6.68 32 5.36 32 4 32 C4 33.32 4 34.64 4 36 C6.97 36 9.94 36 13 36 C13 37.32 13 38.64 13 40 C17.29 40 21.58 40 26 40 C26 37.36 26 34.72 26 32 C21.71 32 17.42 32 13 32 C13 30.35 13 28.7 13 27 C15.97 27 18.94 27 22 27 C22 25.68 22 24.36 22 23 C23.32 23 24.64 23 26 23 C26 24.32 26 25.64 26 27 C28.97 27 31.94 27 35 27 C35 24.03 35 21.06 35 18 C36.65 18.33 38.3 18.66 40 19 C40 21.64 40 24.28 40 27 C38.68 27.33 37.36 27.66 36 28 C35.67 30.64 35.34 33.28 35 36 C36.65 36 38.3 36 40 36 C40 34.68 40 33.36 40 32 C41.32 32 42.64 32 44 32 C44.33 30.35 44.66 28.7 45 27 C51.93 27 58.86 27 66 27 C66.495 28.98 66.495 28.98 67 31 C66 32 66 32 64.15234375 32.09765625 C62.1015625 32.06510417 60.05078125 32.03255208 58 32 C58 34.64 58 37.28 58 40 C56.68 40.33 55.36 40.66 54 41 C53.67 39.35 53.34 37.7 53 36 C51.68 36 50.36 36 49 36 C48.67 37.65 48.34 39.3 48 41 C46.68 41 45.36 41 44 41 C44 42.32 44 43.64 44 45 C49.94 45 55.88 45 62 45 C62 46.65 62 48.3 62 50 C60.68 50 59.36 50 58 50 C58 52.64 58 55.28 58 58 C56.35 58 54.7 58 53 58 C53 56.68 53 55.36 53 54 C51.68 54 50.36 54 49 54 C49 55.32 49 56.64 49 58 C46.03 58 43.06 58 40 58 C40 56.68 40 55.36 40 54 C38.35 54 36.7 54 35 54 C35 52.68 35 51.36 35 50 C33.68 50 32.36 50 31 50 C31 54.29 31 58.58 31 63 C29.35 63 27.7 63 26 63 C26 61.68 26 60.36 26 59 C24.68 59 23.36 59 22 59 C22 61.64 22 64.28 22 67 C20.0625 67.5625 20.0625 67.5625 18 68 C17 67 17 67 16.88647461 65.23413086 C16.89171143 64.48526611 16.89694824 63.73640137 16.90234375 62.96484375 C16.90556641 62.15595703 16.90878906 61.34707031 16.91210938 60.51367188 C16.92467773 59.2384668 16.92467773 59.2384668 16.9375 57.9375 C16.94201172 57.08349609 16.94652344 56.22949219 16.95117188 55.34960938 C16.96299627 53.23304337 16.98093231 51.11651315 17 49 C15.68 49 14.36 49 13 49 C13 47.68 13 46.36 13 45 C11.35 45 9.7 45 8 45 C8.495 46.98 8.495 46.98 9 49 C10.32 49.33 11.64 49.66 13 50 C13 54.29 13 58.58 13 63 C11.68 63 10.36 63 9 63 C9 64.32 9 65.64 9 67 C10.32 67.33 11.64 67.66 13 68 C13 70.64 13 73.28 13 76 C15.97 76 18.94 76 22 76 C22 74.68 22 73.36 22 72 C23.65 72.33 25.3 72.66 27 73 C27 73.99 27 74.98 27 76 C28.32 76 29.64 76 31 76 C31 77.65 31 79.3 31 81 C29.35 80.67 27.7 80.34 26 80 C26 79.01 26 78.02 26 77 C24.68 77 23.36 77 22 77 C22 78.32 22 79.64 22 81 C19.03 81 16.06 81 13 81 C13 82.32 13 83.64 13 85 C11.02 85.495 11.02 85.495 9 86 C8.505 87.98 8.505 87.98 8 90 C6.68 90 5.36 90 4 90 C4 91.32 4 92.64 4 94 C2.35 94 0.7 94 -1 94 C-1.02684312 91.18743719 -1.04676188 88.37512759 -1.0625 85.5625 C-1.07087891 84.76005859 -1.07925781 83.95761719 -1.08789062 83.13085938 C-1.0965143 81.08704779 -1.0522815 79.04316098 -1 77 C0 76 0 76 1.84765625 75.90234375 C3.8984375 75.93489583 5.94921875 75.96744792 8 76 C8 73.36 8 70.72 8 68 C6.68 68 5.36 68 4 68 C4 69.32 4 70.64 4 72 C2.35 72 0.7 72 -1 72 C-0.67 70.35 -0.34 68.7 0 67 C1.32 67 2.64 67 4 67 C4 65.68 4 64.36 4 63 C5.32 63 6.64 63 8 63 C8 60.03 8 57.06 8 54 C6.68 54 5.36 54 4 54 C3.67 49.71 3.34 45.42 3 41 C-2.28 40.67 -7.56 40.34 -13 40 C-13 37.36 -13 34.72 -13 32 C-16.3 32 -19.6 32 -23 32 C-23 33.32 -23 34.64 -23 36 C-21.68 36 -20.36 36 -19 36 C-19 37.32 -19 38.64 -19 40 C-20.485 40.495 -20.485 40.495 -22 41 C-22.73323796 43.01508358 -22.73323796 43.01508358 -23 45 C-24.32 45 -25.64 45 -27 45 C-27 42.03 -27 39.06 -27 36 C-28.65 36 -30.3 36 -32 36 C-32 34.68 -32 33.36 -32 32 C-33.32 32 -34.64 32 -36 32 C-36 30.35 -36 28.7 -36 27 C-34.68 27 -33.36 27 -32 27 C-31.67 28.32 -31.34 29.64 -31 31 C-30.01 31 -29.02 31 -28 31 C-27.67 29.68 -27.34 28.36 -27 27 C-19.74 27 -12.48 27 -5 27 C-5 28.65 -5 30.3 -5 32 C-6.32 32 -7.64 32 -9 32 C-9 33.32 -9 34.64 -9 36 C-6.36 36 -3.72 36 -1 36 C-1 34.68 -1 33.36 -1 32 C0.32 31.67 1.64 31.34 3 31 C3.33 29.68 3.66 28.36 4 27 C2.35 27 0.7 27 -1 27 C-1.02886537 22.68751391 -1.04675255 18.37505238 -1.0625 14.0625 C-1.07087891 12.83080078 -1.07925781 11.59910156 -1.08789062 10.33007812 C-1.09111328 9.16025391 -1.09433594 7.99042969 -1.09765625 6.78515625 C-1.10289307 5.70113525 -1.10812988 4.61711426 -1.11352539 3.50024414 C-1 1 -1 1 0 0 Z " fill="#111111" transform="translate(235,147)"/>
<path d="M0 0 C4.69650274 2.13802696 7.54624428 5.11841989 10.48828125 9.30859375 C12.61431797 15.6867039 12.71907763 23.69503883 9.73828125 29.80859375 C9.02323991 30.9970074 8.27575822 32.16688839 7.48828125 33.30859375 C6.89015625 34.19546875 6.29203125 35.08234375 5.67578125 35.99609375 C-6.04849871 48.39033256 -24.37837596 52.27497374 -40.51171875 55.30859375 C-41.83171875 55.30859375 -43.15171875 55.30859375 -44.51171875 55.30859375 C-43.49886771 51.93242362 -42.32403699 48.94617379 -40.69921875 45.80859375 C-36.10198609 36.83796373 -31.67553781 25.97298553 -31.45703125 15.75 C-31.28150572 9.18729542 -31.28150572 9.18729542 -28.8828125 6.44921875 C-26.81546858 4.86438584 -24.7991637 3.55523183 -22.51171875 2.30859375 C-21.57457031 1.76976562 -20.63742187 1.2309375 -19.671875 0.67578125 C-13.61550726 -1.94440257 -6.33384213 -1.74353042 0 0 Z " fill="#171E31" transform="translate(417.51171875,219.69140625)"/>
<path d="M0 0 C0 0.99 0 1.98 0 3 C-0.64066406 3.29132813 -1.28132813 3.58265625 -1.94140625 3.8828125 C-10.94005261 8.14744669 -16.94244957 12.20827646 -21.11328125 21.4921875 C-23.15703339 27.27231469 -22.5381651 31.34412804 -20.125 36.9375 C-10.38421293 54.55726165 13.06427994 61.51296544 31.25537109 66.93896484 C81.01054509 81.15631933 132.71462711 81.21242264 184 82 C184 82.33 184 82.66 184 83 C168.09806484 84.65100441 152.35895628 85.36798929 136.375 85.3125 C135.27426147 85.31067719 134.17352295 85.30885437 133.03942871 85.30697632 C96.23701634 85.2052078 59.79457502 81.91226715 24 73 C22.7521875 72.69449219 21.504375 72.38898438 20.21875 72.07421875 C-22.98064658 61.04748202 -22.98064658 61.04748202 -34.5625 44.375 C-37.80897081 38.37450058 -38.32724249 32.66079102 -37 26 C-31.50090621 13.25863562 -18.49998078 7.34402262 -6.40625 2.34765625 C-4.29146242 1.51095703 -2.15758033 0.71919344 0 0 Z " fill="#1B2237" transform="translate(128,249)"/>
<path d="M0 0 C1.4606285 2.64738916 2 3.89448334 2 7 C0.54980469 7.54527344 0.54980469 7.54527344 -0.9296875 8.1015625 C-8.73923012 11.09409801 -16.06528974 14.24216307 -23 19 C-23.58265625 19.39832031 -24.1653125 19.79664063 -24.765625 20.20703125 C-29.9461266 24.1185716 -33.42579007 28.62381829 -34.51953125 35.0546875 C-34.92812098 43.13146123 -33.39108364 48.90891132 -28 55 C-18.20125193 63.95016368 -6.04601934 68.43789331 6.3125 72.625 C7.12895996 72.902229 7.94541992 73.17945801 8.78662109 73.46508789 C21.7135146 77.70166447 34.88221852 80.52556342 48.28173828 82.75537109 C50.50035159 83.12505859 52.71699562 83.50515315 54.93359375 83.88671875 C85.19210602 89.04674119 115.27753664 90.31652768 145.90838623 90.1373291 C149.88551598 90.11638866 153.86267408 90.10763548 157.83984375 90.09765625 C165.55996906 90.07658971 173.27996085 90.04273728 181 90 C181 90.33 181 90.66 181 91 C162.93885856 93.94817364 144.88607626 94.23637682 126.625 94.25 C125.0215976 94.25200912 125.0215976 94.25200912 123.38580322 94.25405884 C104.10727659 94.24885686 85.14571555 93.19936055 66 91 C64.88544434 90.8772168 63.77088867 90.75443359 62.62255859 90.62792969 C38.21344986 87.90120051 13.88899563 83.13376455 -9 74 C-9.94488281 73.64550781 -10.88976562 73.29101562 -11.86328125 72.92578125 C-25.11714119 67.75144682 -36.51976424 61.07664048 -44 48.6875 C-45.78032576 42.12254876 -45.83211503 35.77371676 -43.875 29.25 C-35.67557353 15.03766079 -22.09613894 6.31598277 -6.75 1 C-3 0 -3 0 0 0 Z " fill="#F8F1EE" transform="translate(126,243)"/>
<path d="M0 0 C-1.18335938 0.49628906 -2.36671875 0.99257812 -3.5859375 1.50390625 C-12.34905056 5.24269846 -20.58367801 8.9024254 -28 15 C-28.8146875 15.65355469 -29.629375 16.30710938 -30.46875 16.98046875 C-46.60024519 30.64742996 -56.85328823 48.91302917 -59 70 C-59.20636499 75.3995625 -58.78297084 80.64387778 -58.12109375 85.99609375 C-58.08113281 86.65738281 -58.04117188 87.31867188 -58 88 C-59.85765668 89.85765668 -62.75832889 89.25942629 -65.25 89.3125 C-66.38953125 89.34988281 -67.5290625 89.38726562 -68.703125 89.42578125 C-72.63220148 88.91835313 -74.20742065 87.74671582 -77 85 C-80.49642141 78.00715718 -77.60714638 68.01000086 -75.44140625 60.9609375 C-67.43042207 37.59411887 -47.65037634 18.87692444 -25.95996094 7.97460938 C-5.3426109 -1.7808703 -5.3426109 -1.7808703 0 0 Z " fill="#FEF9F6" transform="translate(218,122)"/>
<path d="M0 0 C1.32 0 2.64 0 4 0 C4.33 1.32 4.66 2.64 5 4 C6.32 4.33 7.64 4.66 9 5 C9 3.35 9 1.7 9 0 C10.32 0 11.64 0 13 0 C13 2.97 13 5.94 13 9 C14.65 9 16.3 9 18 9 C18 7.68 18 6.36 18 5 C19.32 5 20.64 5 22 5 C22 3.68 22 2.36 22 1 C23.65 1 25.3 1 27 1 C27 1.99 27 2.98 27 4 C28.32 4 29.64 4 31 4 C31.33 2.68 31.66 1.36 32 0 C33.32 0.33 34.64 0.66 36 1 C35.67 2.32 35.34 3.64 35 5 C34.01 5 33.02 5 32 5 C32 6.32 32 7.64 32 9 C33.32 9.33 34.64 9.66 36 10 C36 12.64 36 15.28 36 18 C34.68 18.33 33.36 18.66 32 19 C31.67 24.61 31.34 30.22 31 36 C28.03 36 25.06 36 22 36 C22 34.68 22 33.36 22 32 C20.68 32 19.36 32 18 32 C18 33.32 18 34.64 18 36 C15.03 36 12.06 36 9 36 C9 37.65 9 39.3 9 41 C13.29 41 17.58 41 22 41 C22 43.64 22 46.28 22 49 C17.71 49 13.42 49 9 49 C9 47.68 9 46.36 9 45 C6.03 45 3.06 45 0 45 C0 43.68 0 42.36 0 41 C1.32 41 2.64 41 4 41 C4 38.03 4 35.06 4 32 C2.68 32 1.36 32 0 32 C0 30.35 0 28.7 0 27 C1.32 27 2.64 27 4 27 C4 25.68 4 24.36 4 23 C5.65 23 7.3 23 9 23 C9 21.35 9 19.7 9 18 C7.35 18 5.7 18 4 18 C4 16.68 4 15.36 4 14 C2.68 14 1.36 14 0 14 C0 9.38 0 4.76 0 0 Z " fill="#F4F4F4" transform="translate(239,138)"/>
<path d="M0 0 C3.16634636 -0.11760715 6.33212074 -0.18771024 9.5 -0.25 C10.386875 -0.28351563 11.27375 -0.31703125 12.1875 -0.3515625 C18.25779177 -0.4408315 23.10356369 0.19221515 28 4 C32.62269362 9.70568317 32.5037809 14.7974721 32.25 21.9375 C32.23195313 22.90751953 32.21390625 23.87753906 32.1953125 24.87695312 C32.14850667 27.25234894 32.08296385 29.62563844 32 32 C29.16640156 32.05449228 26.33387515 32.09390733 23.5 32.125 C22.70851563 32.14175781 21.91703125 32.15851563 21.1015625 32.17578125 C14.89658229 32.22664174 8.39653601 32.20733579 3.625 27.8125 C-0.01438834 21.51355864 -0.27371785 15.6609172 -0.125 8.5625 C-0.11597656 7.73556641 -0.10695313 6.90863281 -0.09765625 6.05664062 C-0.07431512 4.03763292 -0.03845288 2.01877644 0 0 Z " fill="#202020" transform="translate(279,138)"/>
<path d="M0 0 C1.30517578 0.02030273 1.30517578 0.02030273 2.63671875 0.04101562 C4.75808627 0.07598322 6.87912974 0.1297747 9 0.1875 C9.08797281 3.37482254 9.14071341 6.56182788 9.1875 9.75 C9.21263672 10.64525391 9.23777344 11.54050781 9.26367188 12.46289062 C9.33495698 18.94983523 8.50221876 23.5592828 4.75 29 C-0.69136319 32.69235359 -7.13566873 32.4445287 -13.4375 32.3125 C-14.26443359 32.30347656 -15.09136719 32.29445312 -15.94335938 32.28515625 C-17.96236708 32.26181512 -19.98122356 32.22595288 -22 32.1875 C-22.11674705 28.47943404 -22.18743274 24.7718446 -22.25 21.0625 C-22.28351563 20.01578125 -22.31703125 18.9690625 -22.3515625 17.890625 C-22.40998859 13.27496396 -22.31096791 9.91683196 -20.484375 5.6328125 C-14.62537841 -0.1340615 -7.85563148 -0.23530693 0 0 Z " fill="#1B1B1B" transform="translate(221,137.8125)"/>
<path d="M0 0 C2.86266086 1.02623691 3.830557 1.66595523 5.23046875 4.42578125 C5.54628906 5.37839844 5.86210938 6.33101562 6.1875 7.3125 C6.51105469 8.25738281 6.83460937 9.20226562 7.16796875 10.17578125 C10.55119818 21.65970088 9.44063562 31.29379873 4 42 C1.86201508 45.1937254 -0.43527645 48.13963108 -3 51 C-3.66 50.67 -4.32 50.34 -5 50 C-7.33920197 40.29664368 -7.48710423 30.7750578 -6.21875 20.9453125 C-5.94412724 18.82939375 -5.94412724 18.82939375 -6 16 C-10.76473486 27.31624528 -9.73979525 39.23355789 -7 51 C-12.76807885 46.57672605 -15.75806476 42.48387048 -19 36 C-19.85227958 24.28115579 -17.64319374 17.41543024 -10.20703125 8.37890625 C-7.13855337 5.07146726 -3.76633876 2.46414717 0 0 Z " fill="#FD980B" transform="translate(117,167)"/>
<path d="M0 0 C3.28675392 1.604604 5.34349526 3.68699052 7 7 C7.54332199 13.30253511 6.79384054 17.83048923 3 23 C-6.58975749 32.58975749 -22.76787242 37.76910441 -36 39 C-34.47534548 35.63953698 -32.49346241 32.92171849 -30.25 30 C-24.35324255 21.97741876 -20.27446985 13.32247655 -16.95703125 3.9609375 C-13.97452142 -2.15016428 -5.68493642 -0.70451359 0 0 Z " fill="#F8F8F8" transform="translate(418,229)"/>
<path d="M0 0 C1.07471558 -0.00833862 1.07471558 -0.00833862 2.17114258 -0.0168457 C6.9077655 0.04703728 10.87549971 0.83038114 15.375 2.3125 C14.715 2.9725 14.055 3.6325 13.375 4.3125 C14.035 5.034375 14.695 5.75625 15.375 6.5 C17.375 9.3125 17.375 9.3125 17.9375 11.875 C17.375 14.3125 17.375 14.3125 15.375 16.5 C11.69132618 18.72555294 8.58156889 19.45692667 4.375 20.3125 C5.035 21.3025 5.695 22.2925 6.375 23.3125 C6.375 24.3025 6.375 25.2925 6.375 26.3125 C1.095 26.3125 -4.185 26.3125 -9.625 26.3125 C-9.625 24.9925 -9.625 23.6725 -9.625 22.3125 C-10.511875 22.209375 -11.39875 22.10625 -12.3125 22 C-17.39749984 20.94462267 -21.50328519 18.5148084 -24.625 14.3125 C-24.75 11.375 -24.75 11.375 -23.625 8.3125 C-17.01674546 1.20862636 -9.33247318 0.06131189 0 0 Z " fill="#FC8307" transform="translate(250.625,86.6875)"/>
<path d="M0 0 C-13.78240044 7.36105478 -28.14621569 12.28851902 -43.16064453 16.48144531 C-44.70423982 16.91661871 -46.2416322 17.37371208 -47.77734375 17.8359375 C-56.51314165 20.40285442 -65.5002384 21.90104433 -74.44726562 23.53125 C-76.64976695 23.93568789 -78.84862175 24.35449103 -81.046875 24.78125 C-129.60847829 33.89893878 -178.20548186 34.22116451 -227.34375 30.75390625 C-228.21537277 30.69342102 -229.08699554 30.63293579 -229.98503113 30.57061768 C-234.69630246 30.22676593 -239.33255528 29.72978 -244 29 C-244 28.67 -244 28.34 -244 28 C-242.68410889 28.06928711 -241.36821777 28.13857422 -240.01245117 28.20996094 C-223.77840945 29.01672938 -207.56506738 29.23916067 -191.3125 29.25 C-190.64811794 29.25088371 -189.98373589 29.25176743 -189.29922104 29.25267792 C-168.51378461 29.2771103 -147.94030969 28.69377425 -127.27539062 26.3671875 C-124.47153341 26.05286123 -121.66980023 25.77781858 -118.859375 25.53125 C-109.54220414 24.67902607 -100.34526361 23.1258432 -91.125 21.5625 C-89.91142822 21.35705566 -88.69785645 21.15161133 -87.44750977 20.93994141 C-80.79411055 19.77613197 -74.27199393 18.37538543 -67.734375 16.6809082 C-64.57533713 15.89425136 -61.40896202 15.29305848 -58.20556641 14.72094727 C-40.60027769 11.55047923 -23.11304957 6.35425864 -6.50390625 -0.28515625 C-3.84017982 -1.04562729 -2.56080789 -0.96257318 0 0 Z " fill="#201E29" transform="translate(435,316)"/>
<path d="M0 0 C4.16553324 3.29183029 6.71459692 6.82289448 8.90625 11.64453125 C9.15625 14.58203125 9.15625 14.58203125 8.90625 16.64453125 C7.8853125 15.56171875 7.8853125 15.56171875 6.84375 14.45703125 C0.60835745 8.29150304 -6.36495227 3.77426564 -15.37109375 3.5703125 C-16.71880859 3.60705078 -16.71880859 3.60705078 -18.09375 3.64453125 C-16.94777344 4.22460938 -15.80179688 4.8046875 -14.62109375 5.40234375 C-13.09089204 6.19091396 -11.56095833 6.98000437 -10.03125 7.76953125 C-9.27908203 8.14851562 -8.52691406 8.5275 -7.75195312 8.91796875 C-2.71777336 11.53312707 2.05135306 14.41149095 5.90625 18.64453125 C5.90625 19.30453125 5.90625 19.96453125 5.90625 20.64453125 C-1.18155957 23.27593361 -8.70072173 24.35428325 -15.9140625 21.546875 C-24.78773789 16.45875838 -31.9900435 9.10953174 -36.09375 -0.35546875 C-35.76375 -1.34546875 -35.43375 -2.33546875 -35.09375 -3.35546875 C-23.69540209 -7.60191209 -10.24793914 -6.63439343 0 0 Z " fill="#1C243A" transform="translate(96.09375,210.35546875)"/>
<path d="M0 0 C10.11905237 2.92919937 16.22557876 6.40131351 22.140625 15.2265625 C36.30363126 36.35205503 60.06771274 47.35873687 83.99707031 53.51367188 C85.68001647 53.95434142 87.34259728 54.47130951 89 55 C89.33 55.66 89.66 56.32 90 57 C83.93209407 57.23444182 78.83653168 56.49434254 73 54.875 C71.75996216 54.5361377 71.75996216 54.5361377 70.49487305 54.19042969 C43.51550536 46.62471844 19.58858441 33.5016291 3.9375 9.5625 C3.54272461 8.95889648 3.14794922 8.35529297 2.74121094 7.73339844 C0.97778921 4.93248374 0 3.37367616 0 0 Z " fill="#F9F9F9" transform="translate(144,251)"/>
<path d="M0 0 C4.765625 1.734375 4.765625 1.734375 6.875 4.125 C8.382601 7.97775811 8.11016328 11.10671906 7 15 C1.59566428 25.37632459 -8.10293632 31.4278016 -18 37 C-18.87785156 37.51304687 -19.75570312 38.02609375 -20.66015625 38.5546875 C-33.58872741 45.59971155 -48.62168364 50.07357216 -63 53 C-63 50.69 -63 48.38 -63 46 C-58.88832281 44.44410397 -54.77379959 42.91114483 -50.625 41.45703125 C-35.40572022 36.07965055 -20.98244426 29.756038 -8 20 C-6.75476563 19.07960937 -6.75476563 19.07960937 -5.484375 18.140625 C-2.04196812 15.22781918 -0.21074918 13.38006723 0.484375 8.828125 C0.49840907 5.83886842 0.3559484 2.96623667 0 0 Z " fill="#131626" transform="translate(378,195)"/>
<path d="M0 0 C8.6939754 1.50926155 12.81944656 3.96202861 18 11 C26.70441836 21.56381289 36.02296693 28.6112962 48 35 C48.70898438 35.40089844 49.41796875 35.80179687 50.1484375 36.21484375 C67.48586192 45.64064873 88.56238092 48.49643474 108 49 C104.68674446 52.31325554 100.4452042 51.42789342 95.9375 51.4375 C77.71232499 51.42884333 59.4492735 47.98964713 43 40 C42.36916504 39.69690918 41.73833008 39.39381836 41.08837891 39.08154297 C32.60675267 34.95710321 25.02000876 30.37327429 18 24 C17.15824219 23.23945313 16.31648438 22.47890625 15.44921875 21.6953125 C9.23402709 15.79135199 4.23263914 9.47214507 0 2 C0 1.34 0 0.68 0 0 Z " fill="#1A2135" transform="translate(160,257)"/>
<path d="M0 0 C16.06456073 2.57032972 32.46405804 20.88544306 41.66796875 33.5859375 C52.06534361 48.51127144 52.06534361 48.51127144 53 57 C54.98 57 56.96 57 59 57 C57.02 57.495 57.02 57.495 55 58 C55.495 59.11375 55.495 59.11375 56 60.25 C57.40324139 65.5121552 57.15769562 70.5857837 57 76 C56.01 76.33 55.02 76.66 54 77 C54 76.34 54 75.68 54 75 C54.66 75 55.32 75 56 75 C55.67 74.01 55.34 73.02 55 72 C54.21625 72.825 53.4325 73.65 52.625 74.5 C50 77 50 77 48 77 C47.92523438 76.01902344 47.85046875 75.03804688 47.7734375 74.02734375 C46.84507861 63.85100419 44.47884651 55.21158471 40 46 C39.70851074 45.39913574 39.41702148 44.79827148 39.11669922 44.17919922 C32.94340897 31.80253772 24.22595943 22.41833589 13.6796875 13.5234375 C12 12 12 12 11 10 C8.98330173 8.86649466 8.98330173 8.86649466 7 8 C7 7.34 7 6.68 7 6 C6.401875 5.87625 5.80375 5.7525 5.1875 5.625 C3 5 3 5 0 3 C0 2.01 0 1.02 0 0 Z " fill="#C6430B" transform="translate(322,131)"/>
<path d="M0 0 C2.475 0.495 2.475 0.495 5 1 C5 3.64 5 6.28 5 9 C3.68 9.33 2.36 9.66 1 10 C0.67 12.64 0.34 15.28 0 18 C1.65 18 3.3 18 5 18 C5 16.68 5 15.36 5 14 C6.32 14 7.64 14 9 14 C9.33 12.35 9.66 10.7 10 9 C16.93 9 23.86 9 31 9 C31.495 10.98 31.495 10.98 32 13 C31 14 31 14 29.15234375 14.09765625 C27.1015625 14.06510417 25.05078125 14.03255208 23 14 C23 16.64 23 19.28 23 22 C21.68 22.33 20.36 22.66 19 23 C18.67 21.35 18.34 19.7 18 18 C16.68 18 15.36 18 14 18 C13.505 20.475 13.505 20.475 13 23 C11.68 23 10.36 23 9 23 C9 24.32 9 25.64 9 27 C6.03 27 3.06 27 0 27 C0 25.35 0 23.7 0 22 C-2.64 22 -5.28 22 -8 22 C-8 19.36 -8 16.72 -8 14 C-12.62 14 -17.24 14 -22 14 C-22 12.35 -22 10.7 -22 9 C-19.03 9 -16.06 9 -13 9 C-13 7.68 -13 6.36 -13 5 C-11.68 5 -10.36 5 -9 5 C-9 6.32 -9 7.64 -9 9 C-6.03 9 -3.06 9 0 9 C0 6.03 0 3.06 0 0 Z " fill="#0A0A0A" transform="translate(270,165)"/>
<path d="M0 0 C14.31918936 -0.58138062 14.31918936 -0.58138062 20 3 C23.22895079 7.11369842 23.37561059 10.77210089 23.1875 15.8125 C23.16719727 16.85180664 23.16719727 16.85180664 23.14648438 17.91210938 C23.11138845 19.60841265 23.05758943 21.30431136 23 23 C20.26916098 23.13548815 17.54508193 23.23429855 14.8125 23.3125 C14.04357422 23.35439453 13.27464844 23.39628906 12.48242188 23.43945312 C8.17743427 23.53183483 6.52618165 23.41062804 3.01171875 20.66796875 C-0.27501345 16.30905983 -0.12606225 12.54905148 -0.0625 7.3125 C-0.05798828 6.61060547 -0.05347656 5.90871094 -0.04882812 5.18554688 C-0.03706927 3.45699462 -0.01913454 1.72848635 0 0 Z " fill="#D3D3D3" transform="translate(203,223)"/>
<path d="M0 0 C2.39652528 -0.08139142 4.79025436 -0.14067009 7.1875 -0.1875 C7.86103516 -0.21263672 8.53457031 -0.23777344 9.22851562 -0.26367188 C13.70855667 -0.32923345 16.46037634 0.22395146 20 3 C22.52775351 6.79163027 22.22443035 9.80874031 22.125 14.1875 C22.11597656 14.93708984 22.10695313 15.68667969 22.09765625 16.45898438 C22.07412578 18.30612654 22.03825561 20.15310412 22 22 C19.26843041 22.16262928 16.54657878 22.28110686 13.8125 22.375 C13.04357422 22.42527344 12.27464844 22.47554687 11.48242188 22.52734375 C7.07466881 22.64084812 5.49131454 22.40520787 1.96875 19.5 C-0.66226741 15.70095243 -0.57563796 12.10239354 -0.3125 7.625 C-0.28994141 6.88894531 -0.26738281 6.15289062 -0.24414062 5.39453125 C-0.18572927 3.59546158 -0.09606337 1.79745247 0 0 Z " fill="#EFEFEF" transform="translate(284,143)"/>
<path d="M0 0 C0.75410156 0.00451172 1.50820312 0.00902344 2.28515625 0.01367188 C4.14847127 0.02546501 6.01174555 0.04340058 7.875 0.0625 C7.98345031 2.62614483 8.06249744 5.18516279 8.125 7.75 C8.17527344 8.8318457 8.17527344 8.8318457 8.2265625 9.93554688 C8.29791404 13.84204343 8.15034719 15.63184334 5.984375 19.01953125 C2.18509003 22.6992091 -1.22551637 22.18140612 -6.25 22.125 C-7.00410156 22.12048828 -7.75820312 22.11597656 -8.53515625 22.11132812 C-10.39847127 22.09953499 -12.26174555 22.08159942 -14.125 22.0625 C-14.23345031 19.49885517 -14.31249744 16.93983721 -14.375 14.375 C-14.40851563 13.65376953 -14.44203125 12.93253906 -14.4765625 12.18945312 C-14.54791404 8.28295657 -14.40034719 6.49315666 -12.234375 3.10546875 C-8.43509003 -0.5742091 -5.02448363 -0.05640612 0 0 Z " fill="#ECECEC" transform="translate(217.125,142.9375)"/>
<path d="M0 0 C19.78034984 -0.88348957 19.78034984 -0.88348957 28.0546875 5.61328125 C31.64900464 8.97642861 34.20712804 12.35962551 36 17 C36 17.99 36 18.98 36 20 C37.0725 19.896875 38.145 19.79375 39.25 19.6875 C47.9909372 19.71849623 56.13336762 24.24123952 62.3125 30.17578125 C66.6092211 34.82061633 69.52211137 38.46885543 70 45 C68.35 45.33 66.7 45.66 65 46 C64.85304688 45.35933594 64.70609375 44.71867187 64.5546875 44.05859375 C62.64009079 36.67529264 60.18394577 31.61921808 53.59765625 27.49609375 C46.868563 23.94434679 41.04649236 22.85703308 33.4375 22.875 C32.34308594 22.87242187 31.24867188 22.86984375 30.12109375 22.8671875 C27.29391087 22.98749315 24.7489274 23.35500028 22 24 C22.06960938 23.12988281 22.06960938 23.12988281 22.140625 22.2421875 C22.32114875 18.33513776 22.19155856 15.48847434 20.75 11.8125 C15.2020411 6.13845113 7.82097645 2.99221343 0 2 C0 1.34 0 0.68 0 0 Z " fill="#182034" transform="translate(375,186)"/>
<path d="M0 0 C0.33 0 0.66 0 1 0 C1.17015625 0.65226562 1.3403125 1.30453125 1.515625 1.9765625 C2.97675939 7.2459727 4.32467341 11.81421138 8 16 C11.43983432 17.80765878 11.43983432 17.80765878 15 19 C16.34013497 19.65288627 17.67741528 20.31225595 19 21 C19 21.33 19 21.66 19 22 C17.80375 22.226875 16.6075 22.45375 15.375 22.6875 C11.08115262 23.80268651 7.75184363 25.44214299 5 29 C3.3964471 32.25192561 2.13581344 35.55915341 1 39 C-1.00802618 36.99197382 -1.6061711 35.74648196 -2.6875 33.1875 C-5.19191066 28.07664713 -8.68695706 25.23111129 -14.0078125 23.25390625 C-15.65411001 22.77068127 -17.32591376 22.37581528 -19 22 C-18 20 -18 20 -15.92578125 19.24609375 C-15.06339844 18.97925781 -14.20101562 18.71242188 -13.3125 18.4375 C-7.31954037 16.13977013 -4.73026641 12.68964609 -2 7 C-1.11523613 4.64635632 -0.52520315 2.46845482 0 0 Z " fill="#FD960C" transform="translate(152,80)"/>
<path d="M0 0 C1.65 0 3.3 0 5 0 C5 1.32 5 2.64 5 4 C6.32 4 7.64 4 9 4 C9.33 9.94 9.66 15.88 10 22 C10.99 22 11.98 22 13 22 C13.33 19.36 13.66 16.72 14 14 C15.32 14 16.64 14 18 14 C18 15.32 18 16.64 18 18 C19.65 18 21.3 18 23 18 C23 20.97 23 23.94 23 27 C24.32 27 25.64 27 27 27 C27 31.29 27 35.58 27 40 C24.36 40 21.72 40 19 40 C18.67 39.01 18.34 38.02 18 37 C15.98491642 36.26676204 15.98491642 36.26676204 14 36 C14 34.68 14 33.36 14 32 C15.32 32 16.64 32 18 32 C18.33 32.99 18.66 33.98 19 35 C21.01508358 35.73323796 21.01508358 35.73323796 23 36 C23 34.35 23 32.7 23 31 C21.68 31 20.36 31 19 31 C18.67 30.01 18.34 29.02 18 28 C15.98491642 27.26676204 15.98491642 27.26676204 14 27 C14 28.32 14 29.64 14 31 C11.03 31 8.06 31 5 31 C4.67 28.36 4.34 25.72 4 23 C3.01 22.67 2.02 22.34 1 22 C1 20.68 1 19.36 1 18 C2.32 18 3.64 18 5 18 C5 13.71 5 9.42 5 5 C3.35 4.67 1.7 4.34 0 4 C0 2.68 0 1.36 0 0 Z " fill="#F7F7F7" transform="translate(243,192)"/>
<path d="M0 0 C19.96073464 -0.58138062 19.96073464 -0.58138062 27 3 C31.20535662 7.68542016 30.33502436 13.40017757 30.1875 19.3125 C30.16719727 20.85260742 30.16719727 20.85260742 30.14648438 22.42382812 C30.11123883 24.94975909 30.061967 27.4746066 30 30 C26.10456123 30.14553599 22.20982349 30.23415059 18.3125 30.3125 C17.20970703 30.35439453 16.10691406 30.39628906 14.97070312 30.43945312 C6.77460222 30.5632613 6.77460222 30.5632613 2.79296875 27.66796875 C0.28363096 23.93403039 -0.12305165 21.28793581 -0.09765625 16.89453125 C-0.09443359 15.91162109 -0.09121094 14.92871094 -0.08789062 13.91601562 C-0.07951172 12.89185547 -0.07113281 11.86769531 -0.0625 10.8125 C-0.05798828 9.77673828 -0.05347656 8.74097656 -0.04882812 7.67382812 C-0.0370401 5.11582734 -0.02058515 2.55794267 0 0 Z M4 4 C3.9183918 6.37570543 3.85922778 8.74855841 3.8125 11.125 C3.78736328 11.79015625 3.76222656 12.4553125 3.73632812 13.140625 C3.6667764 17.87014242 4.46218714 21.01285346 7 25 C10.04681061 27.03120707 10.60118324 27.24659875 14.01171875 27.1953125 C14.76904297 27.18886719 15.52636719 27.18242187 16.30664062 27.17578125 C17.09232422 27.15902344 17.87800781 27.14226562 18.6875 27.125 C19.88342773 27.11146484 19.88342773 27.11146484 21.10351562 27.09765625 C23.069139 27.07411585 25.03460775 27.03824547 27 27 C27.10883596 24.62374823 27.18766696 22.25256024 27.25 19.875 C27.28351563 19.20984375 27.31703125 18.5446875 27.3515625 17.859375 C27.45223331 12.72516371 26.41989654 9.81624217 23 6 C18.69603492 3.91359034 14.85936469 3.77838031 10.125 3.875 C8.97257813 3.89304688 7.82015625 3.91109375 6.6328125 3.9296875 C5.76398438 3.95289063 4.89515625 3.97609375 4 4 Z " fill="#0B0B0B" transform="translate(199,219)"/>
<path d="M0 0 C2.23068721 2.23068721 2.46793979 3.32964213 3.25 6.3125 C4.78474437 11.06180843 6.67800497 13.30894649 11 16 C13.67644892 16.91626179 16.2066656 17.47022968 19 18 C19 18.33 19 18.66 19 19 C18.33613281 19.15855469 17.67226562 19.31710938 16.98828125 19.48046875 C11.40754596 20.9550864 7.4934496 22.13034298 4 27 C2.78074598 29.9490087 1.82559352 32.91912661 1 36 C-0.28919383 33.50901532 -1.30036882 31.15896731 -2.25 28.5 C-4.53072318 23.93855363 -7.1403979 22.00488025 -11.9453125 20.31640625 C-13.61593058 19.82604264 -15.30697869 19.40632511 -17 19 C-14.70264569 17.85132285 -12.42846589 16.756794 -10.0625 15.75 C-5.76465223 13.29408699 -2.87057181 10.5034578 -1.24609375 5.83203125 C-0.75834395 3.90490791 -0.37041069 1.95307454 0 0 Z " fill="#242B42" transform="translate(191,59)"/>
<path d="M0 0 C1.32 0 2.64 0 4 0 C4 2.64 4 5.28 4 8 C6.97 8 9.94 8 13 8 C13 6.68 13 5.36 13 4 C15.475 4.495 15.475 4.495 18 5 C18 5.99 18 6.98 18 8 C19.32 8 20.64 8 22 8 C22 9.65 22 11.3 22 13 C19.525 12.505 19.525 12.505 17 12 C17 11.01 17 10.02 17 9 C15.68 9 14.36 9 13 9 C13 10.32 13 11.64 13 13 C10.03 13 7.06 13 4 13 C4 14.32 4 15.64 4 17 C2.68 17.33 1.36 17.66 0 18 C-0.33 19.32 -0.66 20.64 -1 22 C-2.32 22 -3.64 22 -5 22 C-5 23.32 -5 24.64 -5 26 C-6.65 26 -8.3 26 -10 26 C-10.02684312 23.18743719 -10.04676188 20.37512759 -10.0625 17.5625 C-10.07087891 16.76005859 -10.07925781 15.95761719 -10.08789062 15.13085938 C-10.0965143 13.08704779 -10.0522815 11.04316098 -10 9 C-9 8 -9 8 -6.93359375 7.90234375 C-5.69802734 7.91974609 -5.69802734 7.91974609 -4.4375 7.9375 C-3.61121094 7.94652344 -2.78492188 7.95554688 -1.93359375 7.96484375 C-1.29550781 7.97644531 -0.65742188 7.98804688 0 8 C0 5.36 0 2.72 0 0 Z " fill="#101010" transform="translate(244,215)"/>
<path d="M0 0 C2.60611462 0.04302182 5.18071468 0.1521721 7.78125 0.3046875 C9.48590721 0.39431 11.19057921 0.48365141 12.89526367 0.57275391 C13.80746674 0.62216125 14.7196698 0.6715686 15.65951538 0.72247314 C33.83068838 1.69821928 51.99365447 2.28950732 70.1875 2.625 C71.28336426 2.64528259 72.37922852 2.66556519 73.50830078 2.6864624 C79.6720847 2.79878199 85.83595711 2.90297815 92 3 C92 3.33 92 3.66 92 4 C75.90467649 5.68912437 59.99059905 6.32538482 43.8125 6.25 C42.70756195 6.24822754 41.6026239 6.24645508 40.46420288 6.24462891 C23.57001474 6.21287837 6.81226963 5.75278341 -10 4 C-10 3.67 -10 3.34 -10 3 C-9.04287109 2.80083984 -9.04287109 2.80083984 -8.06640625 2.59765625 C-7.24011719 2.42105469 -6.41382813 2.24445313 -5.5625 2.0625 C-4.73878906 1.88847656 -3.91507813 1.71445312 -3.06640625 1.53515625 C-1.02338796 1.19247006 -1.02338796 1.19247006 0 0 Z " fill="#33313B" transform="translate(220,328)"/>
<path d="M0 0 C0.86753906 0.10441406 1.73507812 0.20882813 2.62890625 0.31640625 C5.31445312 0.65820312 5.31445312 0.65820312 8 1 C8 1.33 8 1.66 8 2 C-6.6580915 3.55808403 -21.26218923 4.63398354 -36 5 C-37.08845215 5.02868164 -38.1769043 5.05736328 -39.29833984 5.08691406 C-56.76845825 5.4796127 -74.0704664 4.71731808 -91.5 3.5625 C-92.51748322 3.4951062 -93.53496643 3.4277124 -94.58328247 3.35827637 C-97.50381519 3.1618636 -100.42386246 2.9596737 -103.34375 2.75390625 C-104.2154332 2.69342606 -105.08711639 2.63294586 -105.98521423 2.57063293 C-110.69641881 2.22673189 -115.33261628 1.72977047 -120 1 C-120 0.67 -120 0.34 -120 0 C-118.69063477 0.07001221 -117.38126953 0.14002441 -116.03222656 0.2121582 C-100.91437633 0.97133382 -85.82165202 1.18624365 -70.68603516 1.18530273 C-66.76844408 1.1874897 -62.85113547 1.20573497 -58.93359375 1.22460938 C-45.16306583 1.2532197 -31.54301258 0.90417196 -17.82635498 -0.38594055 C-11.65853014 -0.94065896 -6.13101592 -0.906794 0 0 Z " fill="#41332D" transform="translate(311,344)"/>
<path d="M0 0 C-2.18144224 1.15879664 -4.36903017 2.30187378 -6.5625 3.4375 C-7.17158203 3.76298828 -7.78066406 4.08847656 -8.40820312 4.42382812 C-12.65438396 6.60308496 -16.23197711 7.36119736 -21 8 C-24.29818469 8.99329092 -27.51804204 10.18595263 -30.75 11.375 C-51.01951611 18.62997655 -51.01951611 18.62997655 -56 17 C-55.67 16.01 -55.34 15.02 -55 14 C-55.78503906 14.144375 -56.57007813 14.28875 -57.37890625 14.4375 C-62.99610964 15.42998747 -68.29497537 16.2593193 -74 16 C-70.51789082 13.97110543 -67.18971656 13.36639075 -63.234375 12.703125 C-61.86656611 12.46750389 -60.4988111 12.23156978 -59.13110352 11.99536133 C-58.4159256 11.87399811 -57.70074768 11.75263489 -56.96389771 11.62759399 C-39.41761008 8.63496574 -22.03003135 5.07154498 -5.10913086 -0.5402832 C-3 -1 -3 -1 0 0 Z " fill="#E96210" transform="translate(449,309)"/>
<path d="M0 0 C1.32 0 2.64 0 4 0 C4 1.65 4 3.3 4 5 C5.32 5 6.64 5 8 5 C8 6.32 8 7.64 8 9 C9.65 9 11.3 9 13 9 C13 10.65 13 12.3 13 14 C11.35 14 9.7 14 8 14 C8 15.32 8 16.64 8 18 C6.68 18 5.36 18 4 18 C4 19.65 4 21.3 4 23 C5.32 23 6.64 23 8 23 C8 25.64 8 28.28 8 31 C6.68 31 5.36 31 4 31 C4 29.68 4 28.36 4 27 C2.35 27 0.7 27 -1 27 C-1.02886537 22.68751391 -1.04675255 18.37505238 -1.0625 14.0625 C-1.07087891 12.83080078 -1.07925781 11.59910156 -1.08789062 10.33007812 C-1.09111328 9.16025391 -1.09433594 7.99042969 -1.09765625 6.78515625 C-1.10289307 5.70113525 -1.10812988 4.61711426 -1.11352539 3.50024414 C-1 1 -1 1 0 0 Z " fill="#111111" transform="translate(235,147)"/>
<path d="M0 0 C1.32 0.33 2.64 0.66 4 1 C3.67 2.32 3.34 3.64 3 5 C2.01 5 1.02 5 0 5 C0 6.32 0 7.64 0 9 C1.32 9.33 2.64 9.66 4 10 C4 12.64 4 15.28 4 18 C2.68 18.33 1.36 18.66 0 19 C-0.33 21.64 -0.66 24.28 -1 27 C-2.32 27 -3.64 27 -5 27 C-5 25.68 -5 24.36 -5 23 C-6.32 23 -7.64 23 -9 23 C-9 20.03 -9 17.06 -9 14 C-6.36 14 -3.72 14 -1 14 C-1 12.35 -1 10.7 -1 9 C-5.29 9 -9.58 9 -14 9 C-14 7.68 -14 6.36 -14 5 C-12.68 5 -11.36 5 -10 5 C-10 3.68 -10 2.36 -10 1 C-8.35 1 -6.7 1 -5 1 C-5 1.99 -5 2.98 -5 4 C-3.68 4 -2.36 4 -1 4 C-0.67 2.68 -0.34 1.36 0 0 Z " fill="#090909" transform="translate(271,138)"/>
<path d="M0 0 C7.26 0 14.52 0 22 0 C22 2.64 22 5.28 22 8 C17.71 8 13.42 8 9 8 C9 6.68 9 5.36 9 4 C7.35 4 5.7 4 4 4 C4 8.62 4 13.24 4 18 C2.68 18 1.36 18 0 18 C0 12.06 0 6.12 0 0 Z " fill="#060606" transform="translate(199,197)"/>
<path d="M0 0 C4.62 0 9.24 0 14 0 C14 4.62 14 9.24 14 14 C9.38 14 4.76 14 0 14 C0 9.38 0 4.76 0 0 Z " fill="#141414" transform="translate(288,147)"/>
<path d="M0 0 C4.62 0 9.24 0 14 0 C14 4.62 14 9.24 14 14 C9.38 14 4.76 14 0 14 C0 9.38 0 4.76 0 0 Z " fill="#151515" transform="translate(207,147)"/>
<path d="M0 0 C0.87454834 0.00523682 1.74909668 0.01047363 2.65014648 0.01586914 C3.59438477 0.0190918 4.53862305 0.02231445 5.51147461 0.02563477 C6.50469727 0.03401367 7.49791992 0.04239258 8.52124023 0.05102539 C9.51833008 0.05553711 10.51541992 0.06004883 11.54272461 0.06469727 C14.01478872 0.07652532 16.48673541 0.0930069 18.95874023 0.11352539 C19.52124023 2.05102539 19.52124023 2.05102539 19.95874023 4.11352539 C18.95874023 5.11352539 18.95874023 5.11352539 17.11108398 5.21118164 C15.06030273 5.17862956 13.00952148 5.14607747 10.95874023 5.11352539 C10.95874023 7.75352539 10.95874023 10.39352539 10.95874023 13.11352539 C9.63874023 13.44352539 8.31874023 13.77352539 6.95874023 14.11352539 C6.62874023 12.46352539 6.29874023 10.81352539 5.95874023 9.11352539 C2.98874023 9.11352539 0.01874023 9.11352539 -3.04125977 9.11352539 C-3.13891602 2.96118164 -3.13891602 2.96118164 -3.04125977 1.11352539 C-2.04125977 0.11352539 -2.04125977 0.11352539 0 0 Z " fill="#2C2C2C" transform="translate(282.041259765625,173.886474609375)"/>
<path d="M0 0 C3.07178165 -0.44952902 5.22772297 -0.44394368 7.95703125 1.125 C11.09931937 3.5825125 12.77331849 5.14558507 13.8125 9.0625 C12.69848627 13.09008812 10.49611914 14.96242951 7 17 C5.57545458 17.55528728 4.13719931 18.07665483 2.6875 18.5625 C1.470625 19.036875 0.25375 19.51125 -1 20 C-1.78500164 22.02799877 -1.78500164 22.02799877 -2 24 C-3.32 24 -4.64 24 -6 24 C-6.66 21.69 -7.32 19.38 -8 17 C-7.30132812 16.73445313 -6.60265625 16.46890625 -5.8828125 16.1953125 C-4.97273438 15.84210938 -4.06265625 15.48890625 -3.125 15.125 C-2.22007812 14.77695313 -1.31515625 14.42890625 -0.3828125 14.0703125 C2.12217007 13.11469105 2.12217007 13.11469105 4 11 C3.74525692 6.41462451 3.14031285 3.41338353 0 0 Z " fill="#E35809" transform="translate(263,90)"/>
<path d="M0 0 C2.97 0 5.94 0 9 0 C9 2.97 9 5.94 9 9 C16.26 9 23.52 9 31 9 C31 10.32 31 11.64 31 13 C22.09 13 13.18 13 4 13 C4 11.68 4 10.36 4 9 C2.68 9 1.36 9 0 9 C0 6.03 0 3.06 0 0 Z " fill="#EEEEEF" transform="translate(266,237)"/>
<path d="M0 0 C1.65 0 3.3 0 5 0 C5 1.32 5 2.64 5 4 C6.299375 3.979375 7.59875 3.95875 8.9375 3.9375 C10.29165633 3.91600546 11.64756083 3.92851801 13 4 C14.8855253 5.8855253 14.13246689 8.57768831 14.13671875 11.08203125 C14.13285156 11.87996094 14.12898438 12.67789063 14.125 13.5 C14.13080078 14.69689453 14.13080078 14.69689453 14.13671875 15.91796875 C14.12660767 21.87339233 14.12660767 21.87339233 13 23 C10.13732433 23.07325168 7.299281 23.09238205 4.4375 23.0625 C3.63119141 23.05798828 2.82488281 23.05347656 1.99414062 23.04882812 C-0.00393756 23.03700518 -2.00197783 23.01906914 -4 23 C-2.68 22.67 -1.36 22.34 0 22 C0 20.68 0 19.36 0 18 C2.97 18 5.94 18 9 18 C9 15.03 9 12.06 9 9 C7.68 9 6.36 9 5 9 C5 7.68 5 6.36 5 5 C3.35 4.67 1.7 4.34 0 4 C0 2.68 0 1.36 0 0 Z " fill="#222222" transform="translate(297,201)"/>
<path d="M0 0 C4.28542649 0.63153654 8.2952707 1.61623067 12.4375 2.875 C25.68740945 6.69441834 38.2842958 8.51315126 52 9 C48.68596633 12.31403367 44.44594427 11.42603284 39.9375 11.4375 C38.42397949 11.44221313 38.42397949 11.44221313 36.87988281 11.44702148 C24.19852364 11.25331635 11.05434219 9.01811406 -1 5 C-0.67 3.35 -0.34 1.7 0 0 Z " fill="#2A2F3E" transform="translate(216,297)"/>
<path d="M0 0 C0.33 0 0.66 0 1 0 C1 2.97 1 5.94 1 9 C2.32 9 3.64 9 5 9 C5 10.32 5 11.64 5 13 C6.32 13 7.64 13 9 13 C9 15.97 9 18.94 9 22 C6.03 22 3.06 22 0 22 C0 20.68 0 19.36 0 18 C-2.64 18 -5.28 18 -8 18 C-8.33 16.68 -8.66 15.36 -9 14 C-7.35 13.67 -5.7 13.34 -4 13 C-4 11.35 -4 9.7 -4 8 C-2.68 8 -1.36 8 0 8 C0 5.36 0 2.72 0 0 Z " fill="#4C4C4C" transform="translate(261,152)"/>
<path d="M0 0 C4.29 0 8.58 0 13 0 C13 4.29 13 8.58 13 13 C8.71 13 4.42 13 0 13 C0 8.71 0 4.42 0 0 Z " fill="#030303" transform="translate(208,228)"/>
<path d="M0 0 C4.29 0 8.58 0 13 0 C13 4.29 13 8.58 13 13 C8.71 13 4.42 13 0 13 C0 8.71 0 4.42 0 0 Z " fill="#F4F4F4" transform="translate(275,215)"/>
<path d="M0 0 C1.32 0.66 2.64 1.32 4 2 C1.87885743 10.09890798 -3.08900375 14.77883273 -10 19 C-18.71663134 24.08811188 -18.71663134 24.08811188 -22.6171875 23.8203125 C-25.15580262 22.94636303 -26.30759647 22.04869901 -28 20 C-27.154375 19.69707031 -26.30875 19.39414062 -25.4375 19.08203125 C-10.64718304 13.75058786 -10.64718304 13.75058786 -0.6875 2.1875 C-0.460625 1.465625 -0.23375 0.74375 0 0 Z " fill="#1A2032" transform="translate(424,244)"/>
<path d="M0 0 C1.32 0 2.64 0 4 0 C4.33 1.32 4.66 2.64 5 4 C6.32 4.33 7.64 4.66 9 5 C9 3.35 9 1.7 9 0 C10.32 0 11.64 0 13 0 C13 2.97 13 5.94 13 9 C14.65 9 16.3 9 18 9 C18 11.97 18 14.94 18 18 C16.35 18 14.7 18 13 18 C13 16.68 13 15.36 13 14 C11.68 14 10.36 14 9 14 C9 12.35 9 10.7 9 9 C6.03 9 3.06 9 0 9 C0 6.03 0 3.06 0 0 Z " fill="#101010" transform="translate(239,138)"/>
<path d="M0 0 C5.94 0 11.88 0 18 0 C18 1.65 18 3.3 18 5 C16.68 5 15.36 5 14 5 C14 7.64 14 10.28 14 13 C12.35 13 10.7 13 9 13 C9 11.68 9 10.36 9 9 C7.68 9 6.36 9 5 9 C5 7.68 5 6.36 5 5 C3.35 4.67 1.7 4.34 0 4 C0 2.68 0 1.36 0 0 Z " fill="#121212" transform="translate(279,192)"/>
<path d="M0 0 C1.41152344 -0.00773437 1.41152344 -0.00773437 2.8515625 -0.015625 C5.375 0.25 5.375 0.25 8.375 2.25 C8.09765625 4.140625 8.09765625 4.140625 7.375 6.25 C1.84077558 8.96856638 -2.49888863 9.76916198 -8.625 9.25 C-9.615 8.59 -10.605 7.93 -11.625 7.25 C-11.4375 4.875 -11.4375 4.875 -10.625 2.25 C-7.04512618 0.38058099 -4.00421278 -0.02206178 0 0 Z " fill="#FEF5F0" transform="translate(245.625,90.75)"/>
<path d="M0 0 C0 0.66 0 1.32 0 2 C-0.99 2.66 -1.98 3.32 -3 4 C35.28 4.33 73.56 4.66 113 5 C113 5.33 113 5.66 113 6 C73.07 6 33.14 6 -8 6 C-6.72879117 2.18637351 -4.19078006 0 0 0 Z " fill="#FEA93D" transform="translate(202,129)"/>
<path d="M0 0 C8.79736147 -0.68699569 16.41810832 0.65609374 23.66015625 5.94140625 C29.71819444 11.15458333 29.71819444 11.15458333 31 15 C30.34 15 29.68 15 29 15 C28.67 15.99 28.34 16.98 28 18 C27.49984375 17.27039063 26.9996875 16.54078125 26.484375 15.7890625 C23.43156147 12.36184731 20.25282577 10.53265701 16.25 8.375 C15.57195312 7.9934375 14.89390625 7.611875 14.1953125 7.21875 C9.58915072 4.67923115 4.96057941 2.74621293 0 1 C0 0.67 0 0.34 0 0 Z " fill="#E9E9EA" transform="translate(74,213)"/>
<path d="M0 0 C3 1 3 1 4 3 C4.07173806 5.55387492 4.09287732 8.07276761 4.0625 10.625 C4.041875 13.05875 4.02125 15.4925 4 18 C-1.61 18 -7.22 18 -13 18 C-13.33 16.68 -13.66 15.36 -14 14 C-7.565 13.505 -7.565 13.505 -1 13 C-0.67 8.71 -0.34 4.42 0 0 Z " fill="#DBDBDB" transform="translate(222,228)"/>
<path d="M0 0 C7.82009673 -0.88864736 14.99584395 2.22738537 21.375 6.64453125 C26.57492021 11.00734309 31.22361311 15.71528622 32.8125 22.4375 C32.874375 23.283125 32.93625 24.12875 33 25 C31.35 25.33 29.7 25.66 28 26 C27.77957031 25.03900391 27.77957031 25.03900391 27.5546875 24.05859375 C25.64009079 16.67529264 23.18394577 11.61921808 16.59765625 7.49609375 C12.04714107 5.09424288 8.10330385 3.74682495 3 3 C1.125 1.4375 1.125 1.4375 0 0 Z " fill="#1F2435" transform="translate(412,206)"/>
<path d="M0 0 C0 0.99 0 1.98 0 3 C-1.35333438 3.3160849 -2.70772601 3.62764351 -4.0625 3.9375 C-4.81660156 4.11152344 -5.57070313 4.28554688 -6.34765625 4.46484375 C-12.32451989 5.67077942 -18.11066017 6.18179405 -24.1875 6.1875 C-24.88552734 6.19974609 -25.58355469 6.21199219 -26.30273438 6.22460938 C-30.03816182 6.23527187 -32.83029935 6.07218156 -36 4 C-10.28761062 -0.42667509 -10.28761062 -0.42667509 0 0 Z " fill="#121322" transform="translate(343,339)"/>
<path d="M0 0 C1.125 3.75 1.125 3.75 0 6 C-1.97236455 17.51763498 -0.57433375 28.54391067 1 40 C-2 39 -2 39 -3.125 36.875 C-6.69747886 25.13685517 -6.43363035 12.04183517 -1 1 C-0.67 0.67 -0.34 0.34 0 0 Z " fill="#FDF3EB" transform="translate(112,180)"/>
<path d="M0 0 C-8.23311045 4.62727882 -16.56373393 8.84445496 -25.25 12.5625 C-26.07153564 12.92085938 -26.89307129 13.27921875 -27.73950195 13.6484375 C-28.51124756 13.97199219 -29.28299316 14.29554688 -30.078125 14.62890625 C-30.76293945 14.91838135 -31.44775391 15.20785645 -32.15332031 15.50610352 C-34 16 -34 16 -37 15 C-37 13.68 -37 12.36 -37 11 C-35.99582031 10.69707031 -34.99164063 10.39414062 -33.95703125 10.08203125 C-26.13936662 7.69676936 -18.46558302 5.14277141 -10.8671875 2.11328125 C-2.37116564 -1.18558282 -2.37116564 -1.18558282 0 0 Z " fill="#212635" transform="translate(447,323)"/>
<path d="M0 0 C1.32 0.33 2.64 0.66 4 1 C3.67 2.32 3.34 3.64 3 5 C2.01 5 1.02 5 0 5 C0 6.32 0 7.64 0 9 C0.99 9.33 1.98 9.66 3 10 C2.01 10 1.02 10 0 10 C-0.33 10.99 -0.66 11.98 -1 13 C-1 11.68 -1 10.36 -1 9 C-5.29 9 -9.58 9 -14 9 C-14 7.68 -14 6.36 -14 5 C-12.68 5 -11.36 5 -10 5 C-10 3.68 -10 2.36 -10 1 C-8.35 1 -6.7 1 -5 1 C-5 1.99 -5 2.98 -5 4 C-3.68 4 -2.36 4 -1 4 C-0.67 2.68 -0.34 1.36 0 0 Z " fill="#0B0B0B" transform="translate(271,138)"/>
<path d="M0 0 C3.3 0 6.6 0 10 0 C10 2.64 10 5.28 10 8 C15.28 8 20.56 8 26 8 C26 8.33 26 8.66 26 9 C20.39 9 14.78 9 9 9 C9 10.32 9 11.64 9 13 C7.35 12.67 5.7 12.34 4 12 C4 11.01 4 10.02 4 9 C3.01 8.67 2.02 8.34 1 8 C1.99 8 2.98 8 4 8 C4 6.68 4 5.36 4 4 C2.68 4 1.36 4 0 4 C0 2.68 0 1.36 0 0 Z " fill="#454545" transform="translate(212,179)"/>
<path d="M0 0 C0.33 0 0.66 0 1 0 C1 6.93 1 13.86 1 21 C2.32 21 3.64 21 5 21 C5 19.68 5 18.36 5 17 C6.65 17 8.3 17 10 17 C10 18.32 10 19.64 10 21 C14.29 21 18.58 21 23 21 C23.33 19.68 23.66 18.36 24 17 C24 18.65 24 20.3 24 22 C18.53735686 22.02476266 13.07474657 22.04288974 7.61206055 22.05493164 C5.75463288 22.05995303 3.89720915 22.06677141 2.03979492 22.07543945 C-0.63363621 22.08760117 -3.30701496 22.09325033 -5.98046875 22.09765625 C-6.80773972 22.10281754 -7.63501068 22.10797882 -8.48735046 22.11329651 C-12.4622534 22.1136812 -16.11956833 21.98980119 -20 21 C-20 20.67 -20 20.34 -20 20 C-13.4 20 -6.8 20 0 20 C0 13.4 0 6.8 0 0 Z " fill="#5A5A5B" transform="translate(229,229)"/>
<path d="M0 0 C0.86753906 0.10441406 1.73507812 0.20882813 2.62890625 0.31640625 C5.31445312 0.65820312 5.31445312 0.65820312 8 1 C8 1.33 8 1.66 8 2 C4.70913156 2.34153092 1.41720923 2.67166646 -1.875 3 C-2.7928125 3.09539062 -3.710625 3.19078125 -4.65625 3.2890625 C-10.79309053 3.89410312 -16.83466375 4.12065893 -23 4 C-23 3.34 -23 2.68 -23 2 C-27.29 2 -31.58 2 -36 2 C-36 1.67 -36 1.34 -36 1 C-31.68857852 0.63181443 -27.37579321 0.28300928 -23.0625 -0.0625 C-21.85013672 -0.16626953 -20.63777344 -0.27003906 -19.38867188 -0.37695312 C-12.71341032 -0.90156718 -6.62096223 -1.00638626 0 0 Z " fill="#29242C" transform="translate(311,344)"/>
<path d="M0 0 C1.33037532 1.99556299 2.62268277 4.01704853 3.875 6.0625 C5.87596902 8.82854541 6.86430823 9.88011008 10 11 C8.88625 11.391875 7.7725 11.78375 6.625 12.1875 C3.68039334 13.42482967 3.14117455 13.73606497 1.5625 16.6875 C1.376875 17.450625 1.19125 18.21375 1 19 C0.34 18.01 -0.32 17.02 -1 16 C-3.1242748 13.68260931 -5.45665704 11.84173111 -8 10 C-7.05125 9.649375 -6.1025 9.29875 -5.125 8.9375 C-1.65663938 7.2285659 -1.65663938 7.2285659 -0.625 3.3125 C-0.41875 2.219375 -0.2125 1.12625 0 0 Z " fill="#2C334B" transform="translate(176,102)"/>
<path d="M0 0 C0.33 0.99 0.66 1.98 1 3 C0.01 3 -0.98 3 -2 3 C-2 3.66 -2 4.32 -2 5 C-3.65 5.33 -5.3 5.66 -7 6 C-6.67 5.34 -6.34 4.68 -6 4 C-6.53367188 4.22816406 -7.06734375 4.45632812 -7.6171875 4.69140625 C-13.76700689 7.06408743 -18.54190599 7.11904343 -25 6 C-20.92788786 3.28525857 -16.68306239 2.3043196 -12 1 C-11.24332031 0.77828125 -10.48664063 0.5565625 -9.70703125 0.328125 C-3.49321705 -1.39728682 -3.49321705 -1.39728682 0 0 Z " fill="#FD9919" transform="translate(221,118)"/>
<path d="M0 0 C-6.72640473 3.59251162 -13.5028611 6.72637783 -20.625 9.4375 C-21.67300781 9.84379639 -21.67300781 9.84379639 -22.7421875 10.25830078 C-24.47270842 10.9017105 -26.23488252 11.45866922 -28 12 C-28.66 11.67 -29.32 11.34 -30 11 C-29.67 10.34 -29.34 9.68 -29 9 C-30.98 9.33 -32.96 9.66 -35 10 C-31.49981815 7.66654543 -28.00094166 6.73436977 -24 5.625 C-17.92831751 3.90789959 -12.04262374 2.0049724 -6.19921875 -0.3984375 C-3.71886433 -1.07690034 -2.39710881 -0.84474773 0 0 Z " fill="#271E23" transform="translate(435,316)"/>
<path d="M0 0 C0.74121094 0.13277344 1.48242188 0.26554687 2.24609375 0.40234375 C11.48872442 1.9522096 20.64753448 2.57437881 30 3 C27.49125115 5.50874885 26.66136559 5.25670665 23.1953125 5.265625 C22.22408447 5.26949219 21.25285645 5.27335937 20.25219727 5.27734375 C19.22022217 5.26832031 18.18824707 5.25929688 17.125 5.25 C16.084646 5.24613281 15.04429199 5.24226563 13.97241211 5.23828125 C6.79970532 5.15758199 -0.00506624 4.68480125 -7 3 C-7 2.67 -7 2.34 -7 2 C-4.69 2 -2.38 2 0 2 C0 1.34 0 0.68 0 0 Z " fill="#3C3F47" transform="translate(238,303)"/>
<path d="M0 0 C9.92985744 -0.88265399 18.70871104 4.0047543 27 9 C26.34 10.32 25.68 11.64 25 13 C24.36835938 12.63648438 23.73671875 12.27296875 23.0859375 11.8984375 C15.58922419 7.68558708 7.94180743 4.26947401 0 1 C0 0.67 0 0.34 0 0 Z " fill="#EE680F" transform="translate(296,121)"/>
<path d="M0 0 C0.5534764 2.07553648 1 3.84365964 1 6 C-0.5529276 6.87144869 -2.11785436 7.72153657 -3.6875 8.5625 C-4.55761719 9.03816406 -5.42773438 9.51382812 -6.32421875 10.00390625 C-9.45687551 11.17007774 -10.87394302 11.11459743 -14 10 C-15.8125 8.4375 -15.8125 8.4375 -17 7 C-15.66195313 6.49339844 -15.66195313 6.49339844 -14.296875 5.9765625 C-13.12640625 5.53054688 -11.9559375 5.08453125 -10.75 4.625 C-9.00976562 3.96371094 -9.00976562 3.96371094 -7.234375 3.2890625 C-4.73790219 2.29409145 -2.37095053 1.25589954 0 0 Z " fill="#292E3E" transform="translate(413,257)"/>
<path d="M0 0 C0.33 0 0.66 0 1 0 C1.33 1.98 1.66 3.96 2 6 C-2.95 7.65 -7.9 9.3 -13 11 C-13.33 10.34 -13.66 9.68 -14 9 C-16.64 9.33 -19.28 9.66 -22 10 C-19.89734696 7.89734696 -18.96227255 7.51868443 -16.19140625 6.7109375 C-15.44439453 6.49179688 -14.69738281 6.27265625 -13.92773438 6.046875 C-13.14720703 5.82515625 -12.36667969 5.6034375 -11.5625 5.375 C-10.78583984 5.14554688 -10.00917969 4.91609375 -9.20898438 4.6796875 C-5.99111177 3.74841687 -3.37360973 3 0 3 C0 2.01 0 1.02 0 0 Z " fill="#F28428" transform="translate(124,237)"/>
<path d="M0 0 C2.64 0 5.28 0 8 0 C8 1.32 8 2.64 8 4 C5.36 4.33 2.72 4.66 0 5 C-0.33 7.64 -0.66 10.28 -1 13 C-2.32 13 -3.64 13 -5 13 C-5 10.03 -5 7.06 -5 4 C-3.68 3.67 -2.36 3.34 -1 3 C-0.67 2.01 -0.34 1.02 0 0 Z " fill="#F1F1F1" transform="translate(262,188)"/>
<path d="M0 0 C1.32 0 2.64 0 4 0 C4 1.32 4 2.64 4 4 C5.32 4 6.64 4 8 4 C8 6.97 8 9.94 8 13 C5.36 13 2.72 13 0 13 C0 11.68 0 10.36 0 9 C0.99 8.67 1.98 8.34 3 8 C3 7.01 3 6.02 3 5 C2.01 4.67 1.02 4.34 0 4 C0 2.68 0 1.36 0 0 Z " fill="#F9F9F9" transform="translate(262,161)"/>
<path d="M0 0 C1.32 0 2.64 0 4 0 C4.33 0.99 4.66 1.98 5 3 C7.01508358 3.73323796 7.01508358 3.73323796 9 4 C9 2.68 9 1.36 9 0 C10.32 0 11.64 0 13 0 C13 2.64 13 5.28 13 8 C10.03 8 7.06 8 4 8 C4 6.68 4 5.36 4 4 C2.68 4 1.36 4 0 4 C0 2.68 0 1.36 0 0 Z " fill="#F6F6F6" transform="translate(275,233)"/>
<path d="M0 0 C0.33 0 0.66 0 1 0 C1 4.29 1 8.58 1 13 C1.99 13.33 2.98 13.66 4 14 C3.01 14 2.02 14 1 14 C1 16.64 1 19.28 1 22 C0.67 22 0.34 22 0 22 C0 19.36 0 16.72 0 14 C-1.32 14 -2.64 14 -4 14 C-4 15.32 -4 16.64 -4 18 C-5.65 18 -7.3 18 -9 18 C-8.67 16.35 -8.34 14.7 -8 13 C-6.68 13 -5.36 13 -4 13 C-4 11.68 -4 10.36 -4 9 C-2.68 9 -1.36 9 0 9 C0 6.03 0 3.06 0 0 Z " fill="#505050" transform="translate(243,201)"/>
<path d="M0 0 C2.64 0 5.28 0 8 0 C8 1.32 8 2.64 8 4 C9.65 4 11.3 4 13 4 C13 5.32 13 6.64 13 8 C10.03 8 7.06 8 4 8 C4 6.68 4 5.36 4 4 C2.68 4 1.36 4 0 4 C0 2.68 0 1.36 0 0 Z " fill="#080808" transform="translate(271,197)"/>
<path d="M0 0 C2.97 0 5.94 0 9 0 C9 2.97 9 5.94 9 9 C7.35 9 5.7 9 4 9 C4 7.68 4 6.36 4 5 C2.68 5 1.36 5 0 5 C0 3.35 0 1.7 0 0 Z " fill="#222222" transform="translate(302,192)"/>
<path d="M0 0 C2.97 0 5.94 0 9 0 C9.33 1.32 9.66 2.64 10 4 C11.32 4.33 12.64 4.66 14 5 C14 6.32 14 7.64 14 9 C12.35 9 10.7 9 9 9 C9 7.68 9 6.36 9 5 C6.36 5 3.72 5 1 5 C0.67 3.35 0.34 1.7 0 0 Z " fill="#EEEEEE" transform="translate(270,192)"/>
<path d="M0 0 C-17.43298969 9.37757732 -17.43298969 9.37757732 -28 7 C-23.36579583 4.52971487 -18.46520385 3.25529145 -13.4375 1.8125 C-12.47908203 1.52697266 -11.52066406 1.24144531 -10.53320312 0.94726562 C-9.61345703 0.68236328 -8.69371094 0.41746094 -7.74609375 0.14453125 C-6.90747803 -0.09934326 -6.0688623 -0.34321777 -5.20483398 -0.59448242 C-3 -1 -3 -1 0 0 Z " fill="#B45D3D" transform="translate(449,309)"/>
<path d="M0 0 C0 3 0 3 -1.875 5.5 C-4.94847752 9.79414944 -5.30778179 14.88122852 -6 20 C-6.99 20.33 -7.98 20.66 -9 21 C-9.33 23.64 -9.66 26.28 -10 29 C-10.33 29 -10.66 29 -11 29 C-11.83498291 18.2008877 -9.66915849 11.15017241 -2.6875 2.875 C-1.800625 1.92625 -0.91375 0.9775 0 0 Z " fill="#424553" transform="translate(63,275)"/>
<path d="M0 0 C0 0.33 0 0.66 0 1 C-3.63 1.33 -7.26 1.66 -11 2 C-10.67 2.66 -10.34 3.32 -10 4 C-11.24716797 4.19916016 -11.24716797 4.19916016 -12.51953125 4.40234375 C-13.60621094 4.57894531 -14.69289062 4.75554687 -15.8125 4.9375 C-16.89144531 5.11152344 -17.97039062 5.28554687 -19.08203125 5.46484375 C-22.04933356 5.93871921 -22.04933356 5.93871921 -25 7 C-25.33 5.68 -25.66 4.36 -26 3 C-17.40490715 -0.75058597 -9.19378855 -0.28499689 0 0 Z " fill="#FC9425" transform="translate(259,87)"/>
<path d="M0 0 C0.33 1.32 0.66 2.64 1 4 C2.32 4 3.64 4 5 4 C5 5.65 5 7.3 5 9 C3.68 9 2.36 9 1 9 C1 11.64 1 14.28 1 17 C0.67 17 0.34 17 0 17 C0 14.36 0 11.72 0 9 C-1.32 9 -2.64 9 -4 9 C-4 7.35 -4 5.7 -4 4 C-2.68 4 -1.36 4 0 4 C0 2.68 0 1.36 0 0 Z " fill="#B6B6B6" transform="translate(243,161)"/>
<path d="M0 0 C1.65 0.33 3.3 0.66 5 1 C5 1.99 5 2.98 5 4 C6.32 4 7.64 4 9 4 C9 5.65 9 7.3 9 9 C6.525 8.505 6.525 8.505 4 8 C4 7.01 4 6.02 4 5 C-0.29 5 -4.58 5 -9 5 C-9 4.67 -9 4.34 -9 4 C-6.03 4 -3.06 4 0 4 C0 2.68 0 1.36 0 0 Z " fill="#424242" transform="translate(257,219)"/>
<path d="M0 0 C2.97 0 5.94 0 9 0 C9 2.64 9 5.28 9 8 C7.68 8 6.36 8 5 8 C4.67 7.01 4.34 6.02 4 5 C1.98491642 4.26676204 1.98491642 4.26676204 0 4 C0 2.68 0 1.36 0 0 Z " fill="#F4F4F4" transform="translate(212,179)"/>
<path d="M0 0 C1.65 0.33 3.3 0.66 5 1 C5 3.64 5 6.28 5 9 C2.00519083 9.8723412 -0.63575911 10.10829766 -3.75 10.0625 C-4.54921875 10.05347656 -5.3484375 10.04445312 -6.171875 10.03515625 C-6.77515625 10.02355469 -7.3784375 10.01195312 -8 10 C-8 9.67 -8 9.34 -8 9 C-5.36 9 -2.72 9 0 9 C0 6.03 0 3.06 0 0 Z " fill="#242424" transform="translate(270,165)"/>
<path d="M0 0 C1.65 0 3.3 0 5 0 C5 1.32 5 2.64 5 4 C5.99 4.33 6.98 4.66 8 5 C5.36 5 2.72 5 0 5 C0 6.32 0 7.64 0 9 C-1.65 8.67 -3.3 8.34 -5 8 C-4.67 6.68 -4.34 5.36 -4 4 C-2.68 4 -1.36 4 0 4 C0 2.68 0 1.36 0 0 Z " fill="#BEBEBE" transform="translate(302,237)"/>
<path d="M0 0 C-0.66 0.66 -1.32 1.32 -2 2 C-1.01 2.66 -0.02 3.32 1 4 C-1.58361518 4.05407567 -4.16609255 4.093707 -6.75 4.125 C-7.47960937 4.14175781 -8.20921875 4.15851563 -8.9609375 4.17578125 C-12.8044624 4.21072239 -15.74606772 4.17499684 -19 2 C-12.6221448 0.82706111 -6.49678438 -0.29530838 0 0 Z " fill="#1C1825" transform="translate(326,341)"/>
<path d="M0 0 C1.32 0 2.64 0 4 0 C4 1.32 4 2.64 4 4 C5.32 4 6.64 4 8 4 C8 4.99 8 5.98 8 7 C4.04 7 0.08 7 -4 7 C-4 6.34 -4 5.68 -4 5 C-3.01 4.67 -2.02 4.34 -1 4 C-0.26676204 1.98491642 -0.26676204 1.98491642 0 0 Z " fill="#040404" transform="translate(302,242)"/>
<path d="M0 0 C7.04379378 -0.80043111 12.7640372 1.87728722 19 5 C19.66 5.66 20.32 6.32 21 7 C20.34 7.66 19.68 8.32 19 9 C18.34773438 8.65066406 17.69546875 8.30132812 17.0234375 7.94140625 C12.25989686 5.46127373 8.34517907 3.78222133 3 3 C1.125 1.4375 1.125 1.4375 0 0 Z " fill="#3C3F4B" transform="translate(412,206)"/>
<path d="M0 0 C2.05078125 0.03255208 4.1015625 0.06510417 6.15234375 0.09765625 C6.48234375 3.06765625 6.81234375 6.03765625 7.15234375 9.09765625 C6.82234375 7.77765625 6.49234375 6.45765625 6.15234375 5.09765625 C3.51234375 5.09765625 0.87234375 5.09765625 -1.84765625 5.09765625 C-2.41015625 3.16015625 -2.41015625 3.16015625 -2.84765625 1.09765625 C-1.84765625 0.09765625 -1.84765625 0.09765625 0 0 Z " fill="#D3D3D3" transform="translate(254.84765625,164.90234375)"/>
<path d="M0 0 C-1 3 -1 3 -2.671875 3.94921875 C-6.56333025 5.33170943 -9.80183483 6.39357798 -14 6 C-14 5.01 -14 4.02 -14 3 C-9.48492091 0.94769132 -4.97200442 0 0 0 Z " fill="#0E0F20" transform="translate(406,325)"/>
<path d="M0 0 C1.79232337 0.30871122 3.58384321 0.62209064 5.375 0.9375 C6.87160156 1.19853516 6.87160156 1.19853516 8.3984375 1.46484375 C11 2 11 2 13 3 C13 3.66 13 4.32 13 5 C9.04 5 5.08 5 1 5 C0.67 3.35 0.34 1.7 0 0 Z " fill="#191E2E" transform="translate(225,300)"/>
<path d="M0 0 C-0.52432617 0.23187012 -1.04865234 0.46374023 -1.58886719 0.70263672 C-3.97634907 1.75910537 -6.36317945 2.81703813 -8.75 3.875 C-9.575 4.23980469 -10.4 4.60460937 -11.25 4.98046875 C-12.04921875 5.33496094 -12.8484375 5.68945312 -13.671875 6.0546875 C-14.77160645 6.54171143 -14.77160645 6.54171143 -15.89355469 7.03857422 C-17.95475033 7.9793471 -19.98004472 8.97405433 -22 10 C-22 8.68 -22 7.36 -22 6 C-18.901466 4.79741744 -15.79541934 3.61559217 -12.6875 2.4375 C-11.80642578 2.09525391 -10.92535156 1.75300781 -10.01757812 1.40039062 C-9.17001953 1.08134766 -8.32246094 0.76230469 -7.44921875 0.43359375 C-6.27879028 -0.01415405 -6.27879028 -0.01415405 -5.0847168 -0.47094727 C-3 -1 -3 -1 0 0 Z " fill="#FDDEC4" transform="translate(218,122)"/>
<path d="M0 0 C0.33 0 0.66 0 1 0 C1.33 8.25 1.66 16.5 2 25 C2.66 25 3.32 25 4 25 C3.67 25.99 3.34 26.98 3 28 C2.34 27.67 1.68 27.34 1 27 C-1.08766711 18.34004754 -2.25459566 8.73655818 0 0 Z " fill="#FD912C" transform="translate(111,190)"/>
<path d="M0 0 C0 0.66 0 1.32 0 2 C1.32 2.66 2.64 3.32 4 4 C-1.94 4.495 -1.94 4.495 -8 5 C-8.33 4.34 -8.66 3.68 -9 3 C-9.99 2.34 -10.98 1.68 -12 1 C-7.93631321 0.22596442 -4.13574827 -0.0984702 0 0 Z " fill="#2A252D" transform="translate(351,337)"/>
<path d="M0 0 C0 0.99 0 1.98 0 3 C0.66 3.33 1.32 3.66 2 4 C-2.0527516 4.98248524 -5.83861737 5.08159574 -10 5 C-10 4.01 -10 3.02 -10 2 C-3.375 0 -3.375 0 0 0 Z " fill="#111323" transform="translate(361,335)"/>
<path d="M0 0 C2.64 0 5.28 0 8 0 C8 1.65 8 3.3 8 5 C5.36 5 2.72 5 0 5 C0 3.35 0 1.7 0 0 Z " fill="#1A1A1A" transform="translate(226,192)"/>
<path d="M0 0 C0.33 1.32 0.66 2.64 1 4 C-3.455 5.485 -3.455 5.485 -8 7 C-8.33 5.35 -8.66 3.7 -9 2 C-2.25 0 -2.25 0 0 0 Z " fill="#272C3C" transform="translate(419,332)"/>
<path d="M0 0 C0 3 0 3 -1.828125 4.8671875 C-2.62734375 5.52976563 -3.4265625 6.19234375 -4.25 6.875 C-7.56528371 9.70473822 -10.44150871 12.44035994 -13 16 C-13.99 15.67 -14.98 15.34 -16 15 C-14.27399233 13.2467873 -12.54435703 11.49741929 -10.8125 9.75 C-10.08836914 9.01330078 -10.08836914 9.01330078 -9.34960938 8.26171875 C-6.38591145 5.27813023 -3.342921 2.56677663 0 0 Z " fill="#FDA728" transform="translate(166,140)"/>
<path d="M0 0 C0 0.99 0 1.98 0 3 C-4 5 -8 7 -12 9 C-12 8.34 -12 7.68 -12 7 C-12.99 6.67 -13.98 6.34 -15 6 C-10.05 4.02 -5.1 2.04 0 0 Z " fill="#373A43" transform="translate(128,249)"/>
<path d="M0 0 C1.32 0.33 2.64 0.66 4 1 C3.67 2.32 3.34 3.64 3 5 C2.01 5 1.02 5 0 5 C0 6.32 0 7.64 0 9 C0.99 9.33 1.98 9.66 3 10 C2.01 10 1.02 10 0 10 C-0.33 10.99 -0.66 11.98 -1 13 C-1 10.36 -1 7.72 -1 5 C-2.32 4.67 -3.64 4.34 -5 4 C-3.68 4 -2.36 4 -1 4 C-0.67 2.68 -0.34 1.36 0 0 Z " fill="#4C4C4C" transform="translate(271,138)"/>
<path d="M0 0 C-2.22109528 1.2052222 -4.4497865 2.38887404 -6.6875 3.5625 C-7.31333984 3.90474609 -7.93917969 4.24699219 -8.58398438 4.59960938 C-11.5952899 6.16044313 -13.53847632 7.04450625 -16.95703125 6.71484375 C-17.96830078 6.36099609 -17.96830078 6.36099609 -19 6 C-15.78117751 3.85411834 -12.54876914 2.60197657 -8.9375 1.3125 C-8.30005859 1.07466797 -7.66261719 0.83683594 -7.00585938 0.59179688 C-2.24081277 -1.12040638 -2.24081277 -1.12040638 0 0 Z " fill="#4E4F54" transform="translate(447,323)"/>
<path d="M0 0 C2.97 0 5.94 0 9 0 C9 1.32 9 2.64 9 4 C6.03 4 3.06 4 0 4 C0 2.68 0 1.36 0 0 Z " fill="#1F1F1F" transform="translate(225,201)"/>
<path d="M0 0 C1.32 0 2.64 0 4 0 C4 1.32 4 2.64 4 4 C8.29 4 12.58 4 17 4 C17.33 2.68 17.66 1.36 18 0 C18 1.65 18 3.3 18 5 C15.56242587 5.02698422 13.12515085 5.04683099 10.6875 5.0625 C9.99720703 5.07087891 9.30691406 5.07925781 8.59570312 5.08789062 C5.4516975 5.10307906 3.00579981 5.00193327 0 4 C0 2.68 0 1.36 0 0 Z " fill="#494A4A" transform="translate(235,246)"/>
<path d="M0 0 C2.475 0.495 2.475 0.495 5 1 C5 1.99 5 2.98 5 4 C7.64 4 10.28 4 13 4 C13 4.33 13 4.66 13 5 C10.36 5 7.72 5 5 5 C4.67 5.99 4.34 6.98 4 8 C4 7.01 4 6.02 4 5 C2.68 4.67 1.36 4.34 0 4 C0 2.68 0 1.36 0 0 Z " fill="#3D3D3D" transform="translate(257,228)"/>
<path d="M0 0 C0.33 0 0.66 0 1 0 C1 2.64 1 5.28 1 8 C3.64 8 6.28 8 9 8 C9 8.33 9 8.66 9 9 C6.36 9 3.72 9 1 9 C0.67 9.99 0.34 10.98 0 12 C0 11.01 0 10.02 0 9 C-4.29 9 -8.58 9 -13 9 C-13 8.67 -13 8.34 -13 8 C-8.71 8 -4.42 8 0 8 C0 5.36 0 2.72 0 0 Z " fill="#7F7F7F" transform="translate(261,179)"/>
<path d="M0 0 C1.4540625 0.0309375 1.4540625 0.0309375 2.9375 0.0625 C1.9475 0.5575 1.9475 0.5575 0.9375 1.0625 C0.9375 1.7225 0.9375 2.3825 0.9375 3.0625 C-1.82702033 4.44476016 -4.1086363 4.15775387 -7.1875 4.125 C-8.28320312 4.11597656 -9.37890625 4.10695313 -10.5078125 4.09765625 C-11.77238281 4.08025391 -11.77238281 4.08025391 -13.0625 4.0625 C-13.0625 3.7325 -13.0625 3.4025 -13.0625 3.0625 C-12.10537109 2.86333984 -12.10537109 2.86333984 -11.12890625 2.66015625 C-10.30261719 2.48355469 -9.47632813 2.30695313 -8.625 2.125 C-7.80128906 1.95097656 -6.97757813 1.77695312 -6.12890625 1.59765625 C-3.08568002 0.80952394 -3.50902177 0.07161269 0 0 Z " fill="#2B2F3D" transform="translate(223.0625,327.9375)"/>
<path d="M0 0 C1.65 0 3.3 0 5 0 C5 1.32 5 2.64 5 4 C7.64 4 10.28 4 13 4 C13 4.33 13 4.66 13 5 C9.04 5 5.08 5 1 5 C0.67 3.35 0.34 1.7 0 0 Z " fill="#474747" transform="translate(297,201)"/>
<path d="M0 0 C2.64 0 5.28 0 8 0 C8 1.32 8 2.64 8 4 C5.36 4 2.72 4 0 4 C0 2.68 0 1.36 0 0 Z " fill="#FCFCFC" transform="translate(262,188)"/>
<path d="M0 0 C5.28 0 10.56 0 16 0 C11.54547969 3.34089023 10.95185771 3.30946125 5.75 2.6875 C4.67234375 2.56761719 3.5946875 2.44773438 2.484375 2.32421875 C1.66453125 2.21722656 0.8446875 2.11023438 0 2 C0 1.34 0 0.68 0 0 Z " fill="#262838" transform="translate(375,186)"/>
<path d="M0 0 C0.66 0.33 1.32 0.66 2 1 C2.625 4.0625 2.625 4.0625 3 7 C1.35 7.33 -0.3 7.66 -2 8 C-2.33 5.69 -2.66 3.38 -3 1 C-2.01 0.67 -1.02 0.34 0 0 Z " fill="#303444" transform="translate(442,224)"/>
<path d="M0 0 C1.125 3.75 1.125 3.75 0 6 C-0.22467831 7.53668865 -0.40796805 9.07968054 -0.5625 10.625 C-0.64628906 11.44226563 -0.73007813 12.25953125 -0.81640625 13.1015625 C-0.87699219 13.72804687 -0.93757813 14.35453125 -1 15 C-2.5078125 13.7109375 -2.5078125 13.7109375 -4 12 C-3.82176474 7.18764791 -2.74373002 3.93665611 0 0 Z " fill="#FDE0C7" transform="translate(112,180)"/>
<path d="M0 0 C1.41655793 -0.0272415 2.83327045 -0.04650467 4.25 -0.0625 C5.43335938 -0.07990234 5.43335938 -0.07990234 6.640625 -0.09765625 C8.90691002 -0.00385306 10.8288895 0.36758937 13 1 C13 2.32 13 3.64 13 5 C11.35 5 9.7 5 8 5 C8 3.68 8 2.36 8 1 C5.36 1 2.72 1 0 1 C0 0.67 0 0.34 0 0 Z " fill="#CACACA" transform="translate(271,196)"/>
<path d="M0 0 C0 3 0 3 -2.1875 5.48046875 C-3.115625 6.37378906 -4.04375 7.26710937 -5 8.1875 C-5.928125 9.08855469 -6.85625 9.98960937 -7.8125 10.91796875 C-8.534375 11.60503906 -9.25625 12.29210937 -10 13 C-10.66 12.67 -11.32 12.34 -12 12 C-8.27653164 7.57905197 -4.70478962 3.42166518 0 0 Z " fill="#FDA92C" transform="translate(114,169)"/>
<path d="M0 0 C-0.33 0.99 -0.66 1.98 -1 3 C-1.99 3.33 -2.98 3.66 -4 4 C-4.33 3.34 -4.66 2.68 -5 2 C-7.64 2.33 -10.28 2.66 -13 3 C-9.54666565 -0.45333435 -4.63654999 -1.85462 0 0 Z " fill="#FC9027" transform="translate(115,244)"/>
<path d="M0 0 C1.65 0 3.3 0 5 0 C5 1.32 5 2.64 5 4 C6.32 4.33 7.64 4.66 9 5 C6.36 5 3.72 5 1 5 C0.67 3.35 0.34 1.7 0 0 Z " fill="#B7B7B7" transform="translate(243,192)"/>
<path d="M0 0 C1.15957207 3.47871621 0.77456651 4.34219645 -0.4375 7.6875 C-0.72496094 8.49574219 -1.01242187 9.30398438 -1.30859375 10.13671875 C-1.53675781 10.75160156 -1.76492188 11.36648438 -2 12 C-3.32 12 -4.64 12 -6 12 C-4.43358249 7.69235185 -2.31663844 3.93828536 0 0 Z " fill="#4D4F57" transform="translate(371,251)"/>
<path d="M0 0 C-0.99 0.495 -0.99 0.495 -2 1 C-2.33 1.99 -2.66 2.98 -3 4 C-5.97 3.67 -8.94 3.34 -12 3 C-4.82142857 -1.78571429 -4.82142857 -1.78571429 0 0 Z " fill="#FDA32E" transform="translate(208,121)"/>
<path d="M0 0 C0.66 0.99 1.32 1.98 2 3 C-0.64 3.33 -3.28 3.66 -6 4 C-6 3.34 -6 2.68 -6 2 C-6.66 1.34 -7.32 0.68 -8 0 C-2.25 -1.125 -2.25 -1.125 0 0 Z " fill="#2C262C" transform="translate(392,329)"/>
<path d="M0 0 C4.455 0.99 4.455 0.99 9 2 C7.68 3.32 6.36 4.64 5 6 C4.01 5.67 3.02 5.34 2 5 C0.8125 2.4375 0.8125 2.4375 0 0 Z " fill="#3D4250" transform="translate(160,257)"/>
<path d="M0 0 C0 1.65 0 3.3 0 5 C-4.455 5.495 -4.455 5.495 -9 6 C-7.68 5.67 -6.36 5.34 -5 5 C-5 3.68 -5 2.36 -5 1 C-1.125 0 -1.125 0 0 0 Z " fill="#2E2E2E" transform="translate(302,236)"/>
<path d="M0 0 C0.66 0.33 1.32 0.66 2 1 C2.59355614 3.64860427 2.74209269 6.29197322 3 9 C2.01 8.67 1.02 8.34 0 8 C-1.1875 4.4375 -1.1875 4.4375 -2 1 C-1.34 0.67 -0.68 0.34 0 0 Z " fill="#FCEBDF" transform="translate(110,211)"/>
<path d="M0 0 C1.32 0 2.64 0 4 0 C4.33 2.97 4.66 5.94 5 9 C4.67 7.68 4.34 6.36 4 5 C2.68 5 1.36 5 0 5 C0 3.35 0 1.7 0 0 Z " fill="#2B2B2B" transform="translate(199,174)"/>
<path d="M0 0 C2.9375 0.375 2.9375 0.375 6 1 C6.33 1.66 6.66 2.32 7 3 C6.01 4.485 6.01 4.485 5 6 C3.02 4.68 1.04 3.36 -1 2 C-0.67 1.34 -0.34 0.68 0 0 Z " fill="#E85E09" transform="translate(316,128)"/>
<path d="M0 0 C0.33 0.66 0.66 1.32 1 2 C1.99 2.33 2.98 2.66 4 3 C2.71349294 3.69710731 1.42059335 4.38242876 0.125 5.0625 C-0.95394531 5.63677734 -0.95394531 5.63677734 -2.0546875 6.22265625 C-2.69664062 6.47917969 -3.33859375 6.73570312 -4 7 C-4.66 6.67 -5.32 6.34 -6 6 C-4.02 4.02 -2.04 2.04 0 0 Z " fill="#DBDBDB" transform="translate(347,295)"/>
<path d="M0 0 C1.32 0.66 2.64 1.32 4 2 C3.34 3.98 2.68 5.96 2 8 C1.34 7.34 0.68 6.68 0 6 C-0.99 6 -1.98 6 -3 6 C-2.01 4.02 -1.02 2.04 0 0 Z " fill="#282D3B" transform="translate(424,244)"/>
<path d="M0 0 C0.33 0 0.66 0 1 0 C1.35338623 2.96844435 1.5417682 5.15598218 -0.11328125 7.734375 C-1.35503168 9.20348819 -2.67337918 10.60704814 -4 12 C-5.32 11.34 -6.64 10.68 -8 10 C-7.05125 9.649375 -6.1025 9.29875 -5.125 8.9375 C-1.65663938 7.2285659 -1.65663938 7.2285659 -0.625 3.3125 C-0.41875 2.219375 -0.2125 1.12625 0 0 Z " fill="#3F4458" transform="translate(176,102)"/>
<path d="M0 0 C1.98 0 3.96 0 6 0 C5.443125 0.4125 4.88625 0.825 4.3125 1.25 C2.63388406 2.52030395 0.99217853 3.83985123 -0.625 5.1875 C-3 7 -3 7 -5 7 C-4.34 5.68 -3.68 4.36 -3 3 C-2.34 3 -1.68 3 -1 3 C-0.67 2.01 -0.34 1.02 0 0 Z " fill="#343741" transform="translate(365,285)"/>
<path d="M0 0 C2.475 0.495 2.475 0.495 5 1 C4.67 2.32 4.34 3.64 4 5 C2.68 4.67 1.36 4.34 0 4 C0 2.68 0 1.36 0 0 Z " fill="#303030" transform="translate(297,183)"/>
<path d="M0 0 C2.475 0.495 2.475 0.495 5 1 C4.67 2.32 4.34 3.64 4 5 C2.68 4.67 1.36 4.34 0 4 C0 2.68 0 1.36 0 0 Z " fill="#2D2D2D" transform="translate(261,165)"/>
<path d="M0 0 C1.32 0 2.64 0 4 0 C3.67 1.65 3.34 3.3 3 5 C1.68 4.67 0.36 4.34 -1 4 C-0.67 2.68 -0.34 1.36 0 0 Z " fill="#242424" transform="translate(253,165)"/>
<path d="M0 0 C0.33 0 0.66 0 1 0 C1.33 2.64 1.66 5.28 2 8 C-0.475 9.485 -0.475 9.485 -3 11 C-2.01 7.37 -1.02 3.74 0 0 Z " fill="#FBA333" transform="translate(152,80)"/>
<path d="M0 0 C1.32 0 2.64 0 4 0 C4.33 2.64 4.66 5.28 5 8 C4.67 6.68 4.34 5.36 4 4 C2.68 4 1.36 4 0 4 C0 2.68 0 1.36 0 0 Z " fill="#E4E4E4" transform="translate(275,233)"/>
<path d="M0 0 C1.32 0 2.64 0 4 0 C4 1.32 4 2.64 4 4 C5.32 4.33 6.64 4.66 8 5 C5.36 4.67 2.72 4.34 0 4 C0 2.68 0 1.36 0 0 Z " fill="#DADADA" transform="translate(262,161)"/>
<path d="M0 0 C-0.33 1.32 -0.66 2.64 -1 4 C-2.65 4.33 -4.3 4.66 -6 5 C-6 4.01 -6 3.02 -6 2 C-2.25 0 -2.25 0 0 0 Z " fill="#1A1F31" transform="translate(425,330)"/>
<path d="M0 0 C-1.28913487 0.67154933 -2.58140204 1.33708859 -3.875 2 C-4.59429687 2.37125 -5.31359375 2.7425 -6.0546875 3.125 C-8 4 -8 4 -10 4 C-9.67 3.01 -9.34 2.02 -9 1 C-3.79245283 -1.26415094 -3.79245283 -1.26415094 0 0 Z " fill="#E0693B" transform="translate(442,311)"/>
<path d="M0 0 C0.66 0 1.32 0 2 0 C2 0.99 2 1.98 2 3 C2.99 3.33 3.98 3.66 5 4 C0.83861737 4.08159574 -2.9472484 3.98248524 -7 3 C-7 2.67 -7 2.34 -7 2 C-4.69 2 -2.38 2 0 2 C0 1.34 0 0.68 0 0 Z " fill="#2F333E" transform="translate(238,303)"/>
<path d="M0 0 C0.33 0 0.66 0 1 0 C1 3.3 1 6.6 1 10 C-0.32 10.33 -1.64 10.66 -3 11 C-3 9.68 -3 8.36 -3 7 C-2.34 7 -1.68 7 -1 7 C-0.67 4.69 -0.34 2.38 0 0 Z " fill="#0D111F" transform="translate(428,235)"/>
<path d="M0 0 C1.65 0 3.3 0 5 0 C5 1.32 5 2.64 5 4 C3.35 4 1.7 4 0 4 C0 2.68 0 1.36 0 0 Z " fill="#2D2D2D" transform="translate(279,219)"/>
<path d="M0 0 C1.65 0 3.3 0 5 0 C5 1.32 5 2.64 5 4 C3.35 4 1.7 4 0 4 C0 2.68 0 1.36 0 0 Z " fill="#232323" transform="translate(234,215)"/>
<path d="M0 0 C1.32 0 2.64 0 4 0 C4 1.65 4 3.3 4 5 C2.68 5 1.36 5 0 5 C0 3.35 0 1.7 0 0 Z " fill="#292929" transform="translate(226,210)"/>
<path d="M0 0 C1.32 0 2.64 0 4 0 C4 1.65 4 3.3 4 5 C2.68 5 1.36 5 0 5 C0 3.35 0 1.7 0 0 Z " fill="#202020" transform="translate(217,210)"/>
<path d="M0 0 C1.65 0 3.3 0 5 0 C5 1.32 5 2.64 5 4 C3.35 4 1.7 4 0 4 C0 2.68 0 1.36 0 0 Z " fill="#323232" transform="translate(306,179)"/>
<path d="M0 0 C1.32 0 2.64 0 4 0 C4 1.65 4 3.3 4 5 C2.68 5 1.36 5 0 5 C0 3.35 0 1.7 0 0 Z " fill="#2F2F2F" transform="translate(244,165)"/>
<path d="M0 0 C1.32 0.33 2.64 0.66 4 1 C3.01 1.495 3.01 1.495 2 2 C1.34786708 4.02463255 1.34786708 4.02463255 1 6 C-0.32 5.67 -1.64 5.34 -3 5 C-2.01 3.35 -1.02 1.7 0 0 Z " fill="#DF4C02" transform="translate(260,108)"/>
<path d="M0 0 C1.65 0 3.3 0 5 0 C5 0.66 5 1.32 5 2 C6.98 2 8.96 2 11 2 C11 2.33 11 2.66 11 3 C7.7 3 4.4 3 1 3 C0.67 2.01 0.34 1.02 0 0 Z " fill="#DDDDDE" transform="translate(402,216)"/>
<path d="M0 0 C0.33 0.66 0.66 1.32 1 2 C-0.61594832 4.04119788 -2.2856382 6.04072937 -4 8 C-4.66 8 -5.32 8 -6 8 C-4.55746343 4.63408134 -2.66735273 2.48952921 0 0 Z " fill="#FD9725" transform="translate(184,141)"/>
<path d="M0 0 C2.09749995 2.35968744 2.96905704 3.54616994 3.1875 6.75 C3.125625 7.4925 3.06375 8.235 3 9 C0.9375 7.3125 0.9375 7.3125 -1 5 C-0.75 2.25 -0.75 2.25 0 0 Z " fill="#505259" transform="translate(102,218)"/>
<path d="M0 0 C0.598125 0.20625 1.19625 0.4125 1.8125 0.625 C-1.1575 3.1 -1.1575 3.1 -4.1875 5.625 C-4.5175 4.305 -4.8475 2.985 -5.1875 1.625 C-2.1875 -0.375 -2.1875 -0.375 0 0 Z " fill="#484E60" transform="translate(65.1875,206.375)"/>
<path d="M0 0 C-0.99 0.66 -1.98 1.32 -3 2 C-3.72965366 4.56282742 -3.72965366 4.56282742 -4 7 C-7 3.25 -7 3.25 -7 1 C-3.375 -1.125 -3.375 -1.125 0 0 Z " fill="#EB6000" transform="translate(262,106)"/>
<path d="M0 0 C0.99 0 1.98 0 3 0 C3.33 1.32 3.66 2.64 4 4 C2.35 4 0.7 4 -1 4 C-1 1 -1 1 0 0 Z " fill="#1B1823" transform="translate(393,327)"/>
<path d="M0 0 C0.598125 0.20625 1.19625 0.4125 1.8125 0.625 C1.4825 1.285 1.1525 1.945 0.8125 2.625 C-2.25 3.25 -2.25 3.25 -5.1875 3.625 C-5.1875 2.965 -5.1875 2.305 -5.1875 1.625 C-2.1875 -0.375 -2.1875 -0.375 0 0 Z " fill="#FE9406" transform="translate(217.1875,118.375)"/>
</svg>
